<mxfile host="app.diagrams.net" modified="2021-03-18T08:37:12.967Z" agent="5.0 (Macintosh; Intel Mac OS X 10_15_7) AppleWebKit/537.36 (KHTML, like Gecko) Chrome/89.0.4389.72 Safari/537.36" etag="7Bpe30MXor7gax8L0s_j" version="14.4.6" type="github">
  <diagram id="WxJmrbj4FMavfr03XEdt" name="Page-1">
    <mxGraphModel dx="1186" dy="707" grid="1" gridSize="10" guides="1" tooltips="1" connect="1" arrows="1" fold="1" page="1" pageScale="1" pageWidth="1169" pageHeight="827" math="0" shadow="0">
      <root>
        <mxCell id="0" />
        <mxCell id="1" parent="0" />
        <mxCell id="lIqp50ITP-52UnrY79w9-13" style="edgeStyle=orthogonalEdgeStyle;rounded=0;orthogonalLoop=1;jettySize=auto;html=1;entryX=0.5;entryY=0;entryDx=0;entryDy=0;" parent="1" source="lIqp50ITP-52UnrY79w9-1" target="lIqp50ITP-52UnrY79w9-12" edge="1">
          <mxGeometry relative="1" as="geometry" />
        </mxCell>
        <mxCell id="lIqp50ITP-52UnrY79w9-1" value="&lt;b&gt;T = 0.9&lt;/b&gt;&lt;br&gt;(Target &quot;Real&quot; Usage)" style="rounded=0;whiteSpace=wrap;html=1;strokeColor=#b85450;fillColor=#F88A86;" parent="1" vertex="1">
          <mxGeometry x="90" y="130" width="160" height="60" as="geometry" />
        </mxCell>
        <mxCell id="lIqp50ITP-52UnrY79w9-3" value="" style="rounded=0;whiteSpace=wrap;html=1;fillColor=#f8cecc;strokeColor=#b85450;" parent="1" vertex="1">
          <mxGeometry x="700" y="20" width="80" height="30" as="geometry" />
        </mxCell>
        <mxCell id="lIqp50ITP-52UnrY79w9-4" value="User Determined Value" style="text;html=1;strokeColor=none;fillColor=none;align=center;verticalAlign=middle;whiteSpace=wrap;rounded=0;" parent="1" vertex="1">
          <mxGeometry x="560" y="10" width="130" height="50" as="geometry" />
        </mxCell>
        <mxCell id="lIqp50ITP-52UnrY79w9-6" value="" style="rounded=0;whiteSpace=wrap;html=1;fillColor=#dae8fc;strokeColor=#6c8ebf;" parent="1" vertex="1">
          <mxGeometry x="700" y="70" width="80" height="30" as="geometry" />
        </mxCell>
        <mxCell id="lIqp50ITP-52UnrY79w9-7" value="System Determined Value" style="text;html=1;strokeColor=none;fillColor=none;align=center;verticalAlign=middle;whiteSpace=wrap;rounded=0;" parent="1" vertex="1">
          <mxGeometry x="540" y="60" width="150" height="50" as="geometry" />
        </mxCell>
        <mxCell id="lIqp50ITP-52UnrY79w9-8" value="" style="rounded=0;whiteSpace=wrap;html=1;" parent="1" vertex="1">
          <mxGeometry x="700" y="120" width="80" height="30" as="geometry" />
        </mxCell>
        <mxCell id="lIqp50ITP-52UnrY79w9-9" value="Intermediate Value" style="text;html=1;strokeColor=none;fillColor=none;align=center;verticalAlign=middle;whiteSpace=wrap;rounded=0;" parent="1" vertex="1">
          <mxGeometry x="570" y="110" width="130" height="50" as="geometry" />
        </mxCell>
        <mxCell id="lIqp50ITP-52UnrY79w9-14" style="edgeStyle=orthogonalEdgeStyle;rounded=0;orthogonalLoop=1;jettySize=auto;html=1;entryX=0.5;entryY=0;entryDx=0;entryDy=0;" parent="1" source="lIqp50ITP-52UnrY79w9-10" target="lIqp50ITP-52UnrY79w9-12" edge="1">
          <mxGeometry relative="1" as="geometry" />
        </mxCell>
        <mxCell id="lIqp50ITP-52UnrY79w9-10" value="&lt;b&gt;X = 0.73031&lt;/b&gt;&lt;br&gt;(Current Max CPU Usage for Last 30 days)" style="rounded=0;whiteSpace=wrap;html=1;strokeColor=#6c8ebf;fillColor=#A1C3FC;" parent="1" vertex="1">
          <mxGeometry x="280" y="130" width="250" height="60" as="geometry" />
        </mxCell>
        <mxCell id="lIqp50ITP-52UnrY79w9-29" style="edgeStyle=orthogonalEdgeStyle;rounded=0;orthogonalLoop=1;jettySize=auto;html=1;entryX=0;entryY=0.5;entryDx=0;entryDy=0;" parent="1" source="lIqp50ITP-52UnrY79w9-12" target="lIqp50ITP-52UnrY79w9-28" edge="1">
          <mxGeometry relative="1" as="geometry" />
        </mxCell>
        <mxCell id="lIqp50ITP-52UnrY79w9-12" value="&lt;b&gt;S = 0.16969 * 80 =&amp;nbsp;13.5752&lt;/b&gt;&lt;br&gt;(Amount of Space Need To Be Filled)" style="rounded=0;whiteSpace=wrap;html=1;" parent="1" vertex="1">
          <mxGeometry x="160" y="280" width="230" height="60" as="geometry" />
        </mxCell>
        <mxCell id="lIqp50ITP-52UnrY79w9-17" value="" style="rhombus;whiteSpace=wrap;html=1;" parent="1" vertex="1">
          <mxGeometry x="255" y="220" width="40" height="40" as="geometry" />
        </mxCell>
        <mxCell id="lIqp50ITP-52UnrY79w9-18" value="Calculation" style="text;html=1;strokeColor=none;fillColor=none;align=center;verticalAlign=middle;whiteSpace=wrap;rounded=0;" parent="1" vertex="1">
          <mxGeometry x="817" y="30" width="40" height="20" as="geometry" />
        </mxCell>
        <mxCell id="lIqp50ITP-52UnrY79w9-20" value="T-X" style="text;html=1;strokeColor=none;fillColor=none;align=center;verticalAlign=middle;whiteSpace=wrap;rounded=0;" parent="1" vertex="1">
          <mxGeometry x="256" y="230" width="40" height="20" as="geometry" />
        </mxCell>
        <mxCell id="lIqp50ITP-52UnrY79w9-27" style="edgeStyle=orthogonalEdgeStyle;rounded=0;orthogonalLoop=1;jettySize=auto;html=1;entryX=0.5;entryY=1;entryDx=0;entryDy=0;" parent="1" source="lIqp50ITP-52UnrY79w9-22" target="lIqp50ITP-52UnrY79w9-28" edge="1">
          <mxGeometry relative="1" as="geometry">
            <mxPoint x="340" y="479.9999999999998" as="targetPoint" />
          </mxGeometry>
        </mxCell>
        <mxCell id="lIqp50ITP-52UnrY79w9-22" value="&lt;div style=&quot;text-align: left&quot;&gt;&lt;b&gt;A.P.S. =&amp;nbsp;&lt;/b&gt;&lt;b&gt;1.564&lt;/b&gt;&lt;/div&gt;&lt;div style=&quot;text-align: left&quot;&gt;&lt;span&gt;(Average Pod Size)&lt;/span&gt;&lt;/div&gt;" style="rounded=0;whiteSpace=wrap;html=1;fillColor=#dae8fc;strokeColor=#6c8ebf;" parent="1" vertex="1">
          <mxGeometry x="70" y="500" width="160" height="60" as="geometry" />
        </mxCell>
        <mxCell id="lIqp50ITP-52UnrY79w9-26" style="edgeStyle=orthogonalEdgeStyle;rounded=0;orthogonalLoop=1;jettySize=auto;html=1;" parent="1" source="lIqp50ITP-52UnrY79w9-24" target="lIqp50ITP-52UnrY79w9-22" edge="1">
          <mxGeometry relative="1" as="geometry" />
        </mxCell>
        <mxCell id="lIqp50ITP-52UnrY79w9-24" value="&lt;b&gt;R1 = 0.66&lt;/b&gt;&lt;br&gt;(Risk Coefficient 1)" style="rounded=0;whiteSpace=wrap;html=1;fillColor=#f8cecc;strokeColor=#b85450;" parent="1" vertex="1">
          <mxGeometry x="70" y="590" width="160" height="60" as="geometry" />
        </mxCell>
        <mxCell id="lIqp50ITP-52UnrY79w9-25" value="Adjust This ratio to adjust the A.P.S" style="text;html=1;strokeColor=none;fillColor=none;align=center;verticalAlign=middle;whiteSpace=wrap;rounded=0;" parent="1" vertex="1">
          <mxGeometry x="30" y="660" width="240" height="20" as="geometry" />
        </mxCell>
        <mxCell id="lIqp50ITP-52UnrY79w9-31" style="edgeStyle=orthogonalEdgeStyle;rounded=0;orthogonalLoop=1;jettySize=auto;html=1;entryX=0;entryY=0.5;entryDx=0;entryDy=0;" parent="1" source="lIqp50ITP-52UnrY79w9-28" target="lIqp50ITP-52UnrY79w9-30" edge="1">
          <mxGeometry relative="1" as="geometry" />
        </mxCell>
        <mxCell id="lIqp50ITP-52UnrY79w9-28" value="S / A.P.S" style="rhombus;whiteSpace=wrap;html=1;" parent="1" vertex="1">
          <mxGeometry x="300" y="410" width="80" height="80" as="geometry" />
        </mxCell>
        <mxCell id="lIqp50ITP-52UnrY79w9-37" style="edgeStyle=orthogonalEdgeStyle;rounded=0;orthogonalLoop=1;jettySize=auto;html=1;entryX=0;entryY=0.5;entryDx=0;entryDy=0;" parent="1" source="lIqp50ITP-52UnrY79w9-30" target="lIqp50ITP-52UnrY79w9-34" edge="1">
          <mxGeometry relative="1" as="geometry" />
        </mxCell>
        <mxCell id="lIqp50ITP-52UnrY79w9-30" value="&lt;b&gt;N = 10.360305344&lt;/b&gt;&lt;br&gt;(Approximate Number of Pods could be accepted)" style="rounded=0;whiteSpace=wrap;html=1;" parent="1" vertex="1">
          <mxGeometry x="440" y="420" width="290" height="60" as="geometry" />
        </mxCell>
        <mxCell id="lIqp50ITP-52UnrY79w9-32" value="" style="rhombus;whiteSpace=wrap;html=1;" parent="1" vertex="1">
          <mxGeometry x="903" y="20" width="40" height="40" as="geometry" />
        </mxCell>
        <mxCell id="YkEF_Q2LTufc7rQMarKT-10" style="edgeStyle=orthogonalEdgeStyle;rounded=0;orthogonalLoop=1;jettySize=auto;html=1;entryX=1;entryY=0.25;entryDx=0;entryDy=0;fontSize=12;" edge="1" parent="1" source="lIqp50ITP-52UnrY79w9-33" target="YkEF_Q2LTufc7rQMarKT-7">
          <mxGeometry relative="1" as="geometry" />
        </mxCell>
        <mxCell id="lIqp50ITP-52UnrY79w9-33" value="&lt;b&gt;O.A.D&lt;/b&gt;&lt;br&gt;(OverAllocate Distribution)&lt;br&gt;Kernel Density Estimation" style="rounded=0;whiteSpace=wrap;html=1;" parent="1" vertex="1">
          <mxGeometry x="1000" y="200" width="190" height="60" as="geometry" />
        </mxCell>
        <mxCell id="lIqp50ITP-52UnrY79w9-53" style="edgeStyle=orthogonalEdgeStyle;rounded=0;orthogonalLoop=1;jettySize=auto;html=1;entryX=0;entryY=0.5;entryDx=0;entryDy=0;" parent="1" source="lIqp50ITP-52UnrY79w9-34" target="lIqp50ITP-52UnrY79w9-52" edge="1">
          <mxGeometry relative="1" as="geometry" />
        </mxCell>
        <mxCell id="lIqp50ITP-52UnrY79w9-34" value="" style="rhombus;whiteSpace=wrap;html=1;" parent="1" vertex="1">
          <mxGeometry x="860" y="375" width="150" height="150" as="geometry" />
        </mxCell>
        <mxCell id="lIqp50ITP-52UnrY79w9-35" value="&lt;span style=&quot;color: rgb(0 , 0 , 0) ; font-family: &amp;#34;helvetica&amp;#34; ; font-size: 12px ; font-style: normal ; font-weight: 400 ; letter-spacing: normal ; text-align: center ; text-indent: 0px ; text-transform: none ; word-spacing: 0px ; background-color: rgb(248 , 249 , 250) ; display: inline ; float: none&quot;&gt;Perform 100 times simulation with sample size of N&lt;/span&gt;" style="text;html=1;strokeColor=none;fillColor=none;align=center;verticalAlign=middle;whiteSpace=wrap;rounded=0;" parent="1" vertex="1">
          <mxGeometry x="915" y="440" width="40" height="20" as="geometry" />
        </mxCell>
        <mxCell id="lIqp50ITP-52UnrY79w9-63" style="edgeStyle=orthogonalEdgeStyle;rounded=0;orthogonalLoop=1;jettySize=auto;html=1;entryX=0.5;entryY=1;entryDx=0;entryDy=0;" parent="1" source="lIqp50ITP-52UnrY79w9-43" target="lIqp50ITP-52UnrY79w9-34" edge="1">
          <mxGeometry relative="1" as="geometry" />
        </mxCell>
        <mxCell id="lIqp50ITP-52UnrY79w9-43" value="&lt;b&gt;R2 = 1&lt;/b&gt;&lt;br&gt;(Expected number of Pods to have Higher than R3 O.A Ratio)" style="rounded=0;whiteSpace=wrap;html=1;fillColor=#f8cecc;strokeColor=#b85450;" parent="1" vertex="1">
          <mxGeometry x="700" y="580" width="200" height="60" as="geometry" />
        </mxCell>
        <mxCell id="lIqp50ITP-52UnrY79w9-45" value="" style="rounded=0;whiteSpace=wrap;html=1;fillColor=#d5e8d4;strokeColor=#82b366;" parent="1" vertex="1">
          <mxGeometry x="885" y="80" width="80" height="30" as="geometry" />
        </mxCell>
        <mxCell id="lIqp50ITP-52UnrY79w9-46" value="Output Value" style="text;html=1;strokeColor=none;fillColor=none;align=center;verticalAlign=middle;whiteSpace=wrap;rounded=0;" parent="1" vertex="1">
          <mxGeometry x="770" y="70" width="130" height="50" as="geometry" />
        </mxCell>
        <mxCell id="lIqp50ITP-52UnrY79w9-47" value="&lt;font style=&quot;font-size: 9px&quot;&gt;Target&lt;/font&gt;" style="rounded=0;whiteSpace=wrap;html=1;strokeColor=#b85450;fillColor=#F88A86;" parent="1" vertex="1">
          <mxGeometry x="740" y="20" width="40" height="30" as="geometry" />
        </mxCell>
        <mxCell id="lIqp50ITP-52UnrY79w9-64" style="edgeStyle=orthogonalEdgeStyle;rounded=0;orthogonalLoop=1;jettySize=auto;html=1;entryX=0.5;entryY=1;entryDx=0;entryDy=0;" parent="1" source="lIqp50ITP-52UnrY79w9-48" target="lIqp50ITP-52UnrY79w9-34" edge="1">
          <mxGeometry relative="1" as="geometry" />
        </mxCell>
        <mxCell id="lIqp50ITP-52UnrY79w9-48" value="&lt;b&gt;R3 = 0.75&lt;/b&gt;&lt;br&gt;(User defined Risk Ratio)" style="rounded=0;whiteSpace=wrap;html=1;fillColor=#f8cecc;strokeColor=#b85450;" parent="1" vertex="1">
          <mxGeometry x="980" y="580" width="200" height="60" as="geometry" />
        </mxCell>
        <mxCell id="lIqp50ITP-52UnrY79w9-60" style="edgeStyle=orthogonalEdgeStyle;rounded=0;orthogonalLoop=1;jettySize=auto;html=1;entryX=0;entryY=0.5;entryDx=0;entryDy=0;" parent="1" source="lIqp50ITP-52UnrY79w9-52" target="lIqp50ITP-52UnrY79w9-56" edge="1">
          <mxGeometry relative="1" as="geometry">
            <Array as="points">
              <mxPoint x="1310" y="450" />
              <mxPoint x="1310" y="370" />
            </Array>
          </mxGeometry>
        </mxCell>
        <mxCell id="YkEF_Q2LTufc7rQMarKT-21" style="edgeStyle=orthogonalEdgeStyle;rounded=0;orthogonalLoop=1;jettySize=auto;html=1;entryX=0;entryY=0.5;entryDx=0;entryDy=0;fontSize=9;" edge="1" parent="1" source="lIqp50ITP-52UnrY79w9-52" target="lIqp50ITP-52UnrY79w9-61">
          <mxGeometry relative="1" as="geometry">
            <Array as="points">
              <mxPoint x="1310" y="450" />
              <mxPoint x="1310" y="530" />
            </Array>
          </mxGeometry>
        </mxCell>
        <mxCell id="lIqp50ITP-52UnrY79w9-52" value="Risk Need To Be Bufferd&lt;br&gt;1.43 * 75P of Max = 2.288" style="rounded=0;whiteSpace=wrap;html=1;" parent="1" vertex="1">
          <mxGeometry x="1080" y="420" width="170" height="60" as="geometry" />
        </mxCell>
        <mxCell id="YkEF_Q2LTufc7rQMarKT-25" style="edgeStyle=orthogonalEdgeStyle;rounded=0;orthogonalLoop=1;jettySize=auto;html=1;entryX=0.5;entryY=0;entryDx=0;entryDy=0;fontSize=9;" edge="1" parent="1" source="lIqp50ITP-52UnrY79w9-55" target="lIqp50ITP-52UnrY79w9-57">
          <mxGeometry relative="1" as="geometry" />
        </mxCell>
        <mxCell id="lIqp50ITP-52UnrY79w9-55" value="&lt;b&gt;Global Safebuffer&lt;/b&gt;&lt;br&gt;0" style="rounded=0;whiteSpace=wrap;html=1;fillColor=#f8cecc;strokeColor=#b85450;" parent="1" vertex="1">
          <mxGeometry x="1420" y="220" width="200" height="60" as="geometry" />
        </mxCell>
        <mxCell id="YkEF_Q2LTufc7rQMarKT-24" style="edgeStyle=orthogonalEdgeStyle;rounded=0;orthogonalLoop=1;jettySize=auto;html=1;entryX=0;entryY=0.5;entryDx=0;entryDy=0;fontSize=9;" edge="1" parent="1" source="lIqp50ITP-52UnrY79w9-56" target="lIqp50ITP-52UnrY79w9-57">
          <mxGeometry relative="1" as="geometry" />
        </mxCell>
        <mxCell id="lIqp50ITP-52UnrY79w9-56" value="&lt;b&gt;Suggested Safebuffer&lt;/b&gt;&lt;br&gt;2.288" style="rounded=0;whiteSpace=wrap;html=1;fillColor=#d5e8d4;strokeColor=#82b366;" parent="1" vertex="1">
          <mxGeometry x="1350" y="340" width="160" height="60" as="geometry" />
        </mxCell>
        <mxCell id="YkEF_Q2LTufc7rQMarKT-27" style="edgeStyle=orthogonalEdgeStyle;rounded=0;orthogonalLoop=1;jettySize=auto;html=1;entryX=0;entryY=0.5;entryDx=0;entryDy=0;fontSize=9;" edge="1" parent="1" source="lIqp50ITP-52UnrY79w9-57">
          <mxGeometry relative="1" as="geometry">
            <mxPoint x="1730" y="460" as="targetPoint" />
            <Array as="points">
              <mxPoint x="1620" y="460" />
            </Array>
          </mxGeometry>
        </mxCell>
        <mxCell id="lIqp50ITP-52UnrY79w9-57" value="&lt;b&gt;Safebuffer&lt;/b&gt;&lt;br&gt;2.288" style="rounded=0;whiteSpace=wrap;html=1;fillColor=#d5e8d4;strokeColor=#82b366;" parent="1" vertex="1">
          <mxGeometry x="1540" y="340" width="160" height="60" as="geometry" />
        </mxCell>
        <mxCell id="YkEF_Q2LTufc7rQMarKT-22" style="edgeStyle=orthogonalEdgeStyle;rounded=0;orthogonalLoop=1;jettySize=auto;html=1;entryX=0;entryY=0.5;entryDx=0;entryDy=0;fontSize=9;" edge="1" parent="1" source="lIqp50ITP-52UnrY79w9-61">
          <mxGeometry relative="1" as="geometry">
            <mxPoint x="1730" y="460" as="targetPoint" />
            <Array as="points">
              <mxPoint x="1620" y="530" />
              <mxPoint x="1620" y="460" />
            </Array>
          </mxGeometry>
        </mxCell>
        <mxCell id="lIqp50ITP-52UnrY79w9-61" value="&lt;b&gt;Risk&lt;/b&gt;&lt;br&gt;(Risk that Are Not Covered by Safebuffer)" style="rounded=0;whiteSpace=wrap;html=1;fillColor=#d5e8d4;strokeColor=#82b366;" parent="1" vertex="1">
          <mxGeometry x="1420" y="500" width="150" height="60" as="geometry" />
        </mxCell>
        <mxCell id="lIqp50ITP-52UnrY79w9-67" value="&lt;b&gt;Amount of Saving&lt;/b&gt;&lt;br&gt;(13.5752-2.288) / 0.5575 =&amp;nbsp;20.226367713" style="rounded=0;whiteSpace=wrap;html=1;fillColor=#d5e8d4;strokeColor=#82b366;" parent="1" vertex="1">
          <mxGeometry x="1740" y="430" width="160" height="60" as="geometry" />
        </mxCell>
        <mxCell id="nDz4YtGOMV715M5J9GVg-1" value="&lt;b style=&quot;font-size: 21px;&quot;&gt;Test Node:&lt;/b&gt;&lt;span style=&quot;background-color: rgb(255, 255, 255); font-size: 21px; text-align: left;&quot;&gt;tess-node-c2k5l-tess26.stratus.rno.ebay.com&lt;/span&gt;" style="text;html=1;strokeColor=none;fillColor=none;align=center;verticalAlign=middle;whiteSpace=wrap;rounded=0;fontSize=21;" parent="1" vertex="1">
          <mxGeometry x="1240" y="130" width="550" height="20" as="geometry" />
        </mxCell>
        <mxCell id="YkEF_Q2LTufc7rQMarKT-4" style="edgeStyle=orthogonalEdgeStyle;rounded=0;orthogonalLoop=1;jettySize=auto;html=1;entryX=0.5;entryY=0;entryDx=0;entryDy=0;fontSize=21;" edge="1" parent="1" target="lIqp50ITP-52UnrY79w9-33">
          <mxGeometry relative="1" as="geometry">
            <mxPoint x="1095" y="150" as="sourcePoint" />
          </mxGeometry>
        </mxCell>
        <mxCell id="YkEF_Q2LTufc7rQMarKT-3" value="&lt;b&gt;O.A.H&lt;/b&gt;&lt;br&gt;(OverAllocate Histogram)" style="rounded=0;whiteSpace=wrap;html=1;fillColor=#dae8fc;strokeColor=#6c8ebf;" vertex="1" parent="1">
          <mxGeometry x="1000" y="90" width="190" height="60" as="geometry" />
        </mxCell>
        <mxCell id="YkEF_Q2LTufc7rQMarKT-11" style="edgeStyle=orthogonalEdgeStyle;rounded=0;orthogonalLoop=1;jettySize=auto;html=1;entryX=0.5;entryY=0;entryDx=0;entryDy=0;fontSize=12;" edge="1" parent="1" source="YkEF_Q2LTufc7rQMarKT-7" target="lIqp50ITP-52UnrY79w9-34">
          <mxGeometry relative="1" as="geometry">
            <Array as="points">
              <mxPoint x="935" y="310" />
            </Array>
          </mxGeometry>
        </mxCell>
        <mxCell id="YkEF_Q2LTufc7rQMarKT-7" value="" style="shape=image;verticalLabelPosition=bottom;labelBackgroundColor=#ffffff;verticalAlign=top;aspect=fixed;imageAspect=0;image=data:image/png,iVBORw0KGgoAAAANSUhEUgAAA6gAAAKsCAYAAADhp5CKAAAAOXRFWHRTb2Z0d2FyZQBNYXRwbG90bGliIHZlcnNpb24zLjMuNCwgaHR0cHM6Ly9tYXRwbG90bGliLm9yZy8QVMy6AAAACXBIWXMAAAsTAAALEwEAmpwYAAB25UlEQVR4nO3deXhTZfrG8TtL93RLWlrZREFxkEGEugw4yibihoiK+4oo4oaOIriLooyIOir8lGVwVxRBmXFDBMUBdUAWFRQEBNlLm+57k/z+UDuWk9JC05yT9vu5Li/b55wkT/I2pXfOe95jCwQCAQEAAAAAYDK72Q0AAAAAACARUAEAAAAAFkFABQAAAABYAgEVAAAAAGAJBFQAAAAAgCUQUAEAAAAAluCsb4ecnBxNmTJF+fn5stlsGjBggM4444xa+wQCAc2aNUurVq1STEyMRo0apcMPP1yS9Nlnn2nu3LmSpKFDh6pPnz6hfxYAAAAAgIhXb0B1OBy6/PLLdfjhh6usrExjx45Vt27d1LZt25p9Vq1apd27d+uZZ57RTz/9pBkzZujRRx9VcXGx5syZo4kTJ0qSxo4dq6ysLLlcrnob27lzZyOeVtNKS0tTTk6O2W2gARiryMFYRRbGK3IwVpGDsYosjFfkYKysp3Xr1nVuq3eKb2pqas3R0Li4OLVp00Zer7fWPitWrNDJJ58sm82mI488UiUlJcrLy9Pq1avVrVs3uVwuuVwudevWTatXr27cswEAAAAANEsHdA5qdna2fv75Z3Xq1KlW3ev1Ki0treZ7j8cjr9crr9crj8dTU3e73YZwCwAAAACA1IApvr8rLy/X5MmTddVVVyk+Pj7kjSxcuFALFy6UJE2cOLFW4LUap9Np6f7wP4xV5GCsIgvjFTkYq8jBWEUWxityMFaRpUEBtbq6WpMnT9Zf//pXnXDCCYbtbre71rzu3Nxcud1uud1urVu3rqbu9XrVpUuXoI8xYMAADRgwoOZ7K88TZx575GCsIgdjFVkYr8jBWEUOxiqyMF6Rg7GynkadgxoIBPT888+rTZs2Ouuss4Luk5WVpSVLligQCGjDhg2Kj49XamqqunfvrjVr1qi4uFjFxcVas2aNunfvftBPBAAAAADQfNV7BHX9+vVasmSJ2rdvrzvvvFOSdPHFF9d8CjFw4EAde+yxWrlypW655RZFR0dr1KhRkiSXy6XzzjtP48aNkySdf/75DVrBFwAAAADQ8tQbUI866ii99dZb+93HZrPp2muvDbqtX79+6tev38F1BwAAAABoMQ5oFV8AAAAAAJoKARUAAAAAYAkEVAAAAACAJRBQAQAAAACWQEAFAAAAAFgCARUAAAAAYAkEVAAAAACAJRBQAQAAAACWQEAFAAAAAFgCARUAAAAAYAkEVAAAAACAJRBQAQAAAACWQEAFAAAAAFgCARUAAAAAYAkEVAAAAACAJRBQAQAAAACWQEAFAAAAAFgCARUAAAAAYAkEVAAAAACAJRBQAQAAAACWQEAFAAAAAFgCARUAAAAAYAkEVAAAAACAJTjNbqAl8o0YXO8+junzw9AJAAAAAFgHR1ABAAAAAJZAQAUAAAAAWAIBFQAAAABgCQRUAAAAAIAlEFABAAAAAJZAQAUAAAAAWAIBFQAAAABgCQRUAAAAAIAlEFABAAAAAJZAQAUAAAAAWAIBFQAAAABgCQRUAAAAAIAlEFABAAAAAJZAQAUAAAAAWAIBFQAAAABgCQRUAAAAAIAlEFABAAAAAJZAQAUAAAAAWAIBFQAAAABgCQRUAAAAAIAlEFABAAAAAJZAQAUAAAAAWAIBFQAAAABgCQRUAAAAAIAlEFABAAAAAJZAQAUAAAAAWAIBFQAAAABgCQRUAAAAAIAlEFABAAAAAJZAQAUAAAAAWAIBFQAAAABgCQRUAAAAAIAlEFABAAAAAJZAQAUAAAAAWAIBFQAAAABgCQRUAAAAAIAlEFABAAAAAJZAQAUAAAAAWAIBFQAAAABgCQRUAAAAAIAlEFABAAAAAJZAQAUAAAAAWAIBFQAAAABgCQRUAAAAAIAlEFABAAAAAJZAQAUAAAAAWAIBFQAAAABgCQRUAAAAAIAlOOvbYerUqVq5cqWSk5M1efJkw/b58+friy++kCT5/X5t375dM2fOlMvl0o033qjY2FjZ7XY5HA5NnDgx9M8AAAAAANAs1BtQ+/Tpo0GDBmnKlClBtw8ePFiDBw+WJK1YsULvv/++XC5XzfYHHnhASUlJIWoXAAAAANBc1TvFt0uXLrUC5/4sXbpUvXv3bnRTAAAAAICWp94jqA1VUVGh1atXa/jw4bXqEyZMkCSdeuqpGjBgQKgeDgAAAADQzIQsoH7zzTfq3LlzraOtDz/8sNxutwoKCvTII4+odevW6tKlS9DbL1y4UAsXLpQkTZw4UWlpaaFqLeScTmej+tvTgH2s/PwjSWPHCuHDWEUWxityMFaRg7GKLIxX5GCsIkvIAurSpUt10kkn1aq53W5JUnJyso477jht3LixzoA6YMCAWkdYc3JyQtVayKWlpTV5f1Z+/pEkHGOF0GCsIgvjFTkYq8jBWEUWxityMFbW07p16zq3heQyM6WlpVq3bp2ysrJqauXl5SorK6v5+ttvv1X79u1D8XAAAAAAgGao3iOoTz/9tNatW6eioiKNHDlSw4YNU3V1tSRp4MCBkqT//ve/OuaYYxQbG1tzu4KCAj3xxBOSJJ/Pp5NOOkndu3dvgqcAAAAAAGgO6g2oo0ePrvdO+vTpoz59+tSqZWRkaNKkSQfbFwAAAACghQnJFF8AAAAAABqLgAoAAAAAsAQCKgAAAADAEgioAAAAAABLIKACAAAAACyBgAoAAAAAsAQCKgAAAADAEgioAAAAAABLIKACAAAAACyBgAoAAAAAsAQCKgAAAADAEgioAAAAAABLIKACAAAAACyBgAoAAAAAsAQCKgAAAADAEgioAAAAAABLIKACAAAAACyBgAoAAAAAsAQCKgAAAADAEgioAAAAAABLIKACAAAAACyBgAoAAAAAsAQCKgAAAADAEgioAAAAAABLIKACAAAAACyBgAoAAAAAsAQCKgAAAADAEgioAAAAAABLIKACAAAAACyBgAoAAAAAsAQCKgAAAADAEgioAAAAAABLIKACAAAAACyBgAoAAAAAsAQCKgAAAADAEgioAAAAAABLIKACAAAAACyBgAoAAAAAsAQCKgAAAADAEgioAAAAAABLIKACAAAAACyBgAoAAAAAsAQCKgAAAADAEgioAAAAAABLIKACAAAAACyBgAoAAAAAsAQCKgAAAADAEgioAAAAAABLIKACAAAAACyBgAoAAAAAsAQCKgAAAADAEgioAAAAAABLIKACAAAAACyBgAoAAAAAsAQCKgAAAADAEgioAAAAAABLIKACAAAAACyBgAoAAAAAsAQCKgAAAADAEgioAAAAAABLIKACAAAAACyBgAoAAAAAsAQCKgAAAADAEgioAAAAAABLIKACAAAAACyBgAoAAAAAsAQCKgAAAADAEgioAAAAAABLIKACAAAAACyBgAoAAAAAsAQCKgAAAADAEgioAAAAAABLcNa3w9SpU7Vy5UolJydr8uTJhu1r167V448/rlatWkmSTjjhBJ1//vmSpNWrV2vWrFny+/3q37+/hgwZEtruAQAAAADNRr0BtU+fPho0aJCmTJlS5z5/+tOfNHbs2Fo1v9+vmTNn6t5775XH49G4ceOUlZWltm3bNr5rAAAAAECzU+8U3y5dusjlch3wHW/cuFGZmZnKyMiQ0+lUr169tHz58oNqEgAAAADQ/IXkHNQNGzbozjvv1KOPPqpt27ZJkrxerzweT80+Ho9HXq83FA8HAAAAAGiG6p3iW5/DDjtMU6dOVWxsrFauXKlJkybpmWeeOeD7WbhwoRYuXChJmjhxotLS0hrbWpNxOp2N6m9PA/ax8vOPJI0dK4QPYxVZGK/IwVhFDsYqsjBekYOxiiyNDqjx8fE1X/fo0UMzZ85UYWGh3G63cnNza7bl5ubK7XbXeT8DBgzQgAEDar7PyclpbGtNJi0trcn7s/LzjyThGCuEBmMVWRivyMFYRQ7GKrIwXpGDsbKe1q1b17mt0VN88/PzFQgEJP163qnf71diYqI6duyoXbt2KTs7W9XV1Vq2bJmysrIa+3AAAAAAgGaq3iOoTz/9tNatW6eioiKNHDlSw4YNU3V1tSRp4MCB+uqrr7RgwQI5HA5FR0dr9OjRstlscjgcuuaaazRhwgT5/X717dtX7dq1a/InBAAAAACITPUG1NGjR+93+6BBgzRo0KCg23r06KEePXocVGMAAAAAgJYlJKv4AgAAAADQWARUAAAAAIAlEFABAAAAAJZAQAUAAAAAWAIBFQAAAABgCQRUAAAAAIAlEFABAAAAAJZAQAUAAAAAWAIBFQAAAABgCQRUAAAAAIAlEFABAAAAAJZAQAUAAAAAWAIBFQAAAABgCQRUAAAAAIAlEFABAAAAAJZAQAUAAAAAWAIBFQAAAABgCQRUAAAAAIAlEFABAAAAAJZAQAUAAAAAWAIBFQAAAABgCQRUAAAAAIAlEFABAAAAAJZAQAUAAAAAWAIBFQAAAABgCQRUAAAAAIAlEFABAAAAAJZAQAUAAAAAWILT7AYAAObyjRi83+2O6fPD1AkAAGjpOIIKAAAAALAEAioAAAAAwBIIqAAAAAAASyCgAgAAAAAsgYAKAAAAALAEAioAAAAAwBIIqAAAAAAASyCgAgAAAAAsgYAKAAAAALAEAioAAAAAwBIIqAAAAAAASyCgAgAAAAAsgYAKAAAAALAEAioAAAAAwBIIqAAAAAAASyCgAgAAAAAsgYAKAAAAALAEAioAAAAAwBIIqAAAAAAASyCgAgAAAAAsgYAKAAAAALAEAioAAAAAwBIIqAAAAAAAS3Ca3QCA4HwjBjf6PhzT54egk5atvnGo7zVu7O0BAABaEo6gAgAAAAAsgYAKAAAAALAEAioAAAAAwBIIqAAAAAAASyCgAgAAAAAsgYAKAAAAALAEAioAAAAAwBIIqAAAAAAASyCgAgAAAAAsgYAKAAAAALAEAioAAAAAwBIIqAAAAAAASyCgAgAAAAAsgYAKAAAAALAEAioAAAAAwBIIqAAAAAAASyCgAgAAAAAsgYAKAAAAALAEAioAAAAAwBKc9e0wdepUrVy5UsnJyZo8ebJh+xdffKH33ntPgUBAcXFxuvbaa9WhQwdJ0o033qjY2FjZ7XY5HA5NnDgx5E8AAAAAANA81BtQ+/Tpo0GDBmnKlClBt7dq1UoPPvigXC6XVq1apWnTpunRRx+t2f7AAw8oKSkpdB0DAAAAAJqlegNqly5dlJ2dXef2zp0713x9xBFHKDc3NzSdAQAAAABalHoD6oFYtGiRjj322Fq1CRMmSJJOPfVUDRgwIJQPBwAAAABoRkIWUL///nstXrxY48ePr6k9/PDDcrvdKigo0COPPKLWrVurS5cuQW+/cOFCLVy4UJI0ceJEpaWlhaq1kHM6nY3qb08D9mnq57/n3F773Z4xb1mTPn64NHaszNSQn5P6RNJzN2us6nsv1Ke+nusbRyuM0cH0GMnvrZaGsYocjFVkYbwiB2MVWUISULdu3aoXXnhB48aNU2JiYk3d7XZLkpKTk3Xcccdp48aNdQbUAQMG1DrCmpOTE4rWmkRaWlqT92f28zf78UMlHGNlZZH03CN1rBrbcyQ852A9Rup4tUSMVeRgrCIL4xU5GCvrad26dZ3bGn2ZmZycHD3xxBO66aabaj1QeXm5ysrKar7+9ttv1b59+8Y+HAAAAACgmar3COrTTz+tdevWqaioSCNHjtSwYcNUXV0tSRo4cKDmzJmj4uJizZgxQ5JqLidTUFCgJ554QpLk8/l00kknqXv37k33TAAAAAAAEa3egDp69Oj9bh85cqRGjhxpqGdkZGjSpEkH3RgAAAAAoGVp9BRfAAAAAABCgYAKAAAAALAEAioAAAAAwBIIqAAAAAAASyCgAgAAAAAsgYAKAAAAALAEAioAAAAAwBIIqAAAAAAASyCgAgAAAAAsgYAKAAAAALAEAioAAAAAwBIIqAAAAAAASyCgAgAAAAAsgYAKAAAAALAEAioAAAAAwBIIqAAAAAAASyCgAgAAAAAsgYAKAAAAALAEp9kNIDjfiMH73e6YPj9MnQB14+fU+uobIyv0wM8JAAD4HUdQAQAAAACWQEAFAAAAAFgCARUAAAAAYAkEVAAAAACAJRBQAQAAAACWQEAFAAAAAFgCARUAAAAAYAkEVAAAAACAJRBQAQAAAACWQEAFAAAAAFgCARUAAAAAYAkEVAAAAACAJRBQAQAAAACWQEAFAAAAAFgCARUAAAAAYAkEVAAAAACAJRBQAQAAAACWQEAFAAAAAFgCARUAAAAAYAkEVAAAAACAJRBQAQAAAACWQEAFAAAAAFgCARUAAAAAYAkEVAAAAACAJRBQAQAAAACWQEAFAAAAAFgCARUAAAAAYAlOsxsAgEhWIemrmBitjIrSd1FR2u1wqMBuV3QgoIRAQCkP/kOdtv2szls3KWvdGh228xfZzG4aAADAogioAHAQfmrXQf8cfLH+nZmpAvt+JqMc11uLj+td823r7N06edVXOnvJAvX6doUcYegVAAAgUhBQAeAA7Han6bFrbtG7pwxSYH/BtA47W2XqzdOG6M3Thijdm6NzomN1blmZjqmq4sgqAABo8QioANAAAUlz+56hB0beoUJXUkjuc687TTMkzXC51LGqSpeUluqCsjJ5/P6Q3D8AAECkIaACQD2qHA7dc+M4vXnakCZ7jE1RUXo4OVkTk5J0enm5LikpUe/KSlayAwAALQoBFQD2oyguQTeMm6glPf9S5z5xfr9OKy/XCZWVOqq6Wm6/X1WSiu12bZ31tH7s0EnLu3TX6s5dVe3c/6/dKptN8+PiND8uTh2qq3VxaamGlZaqFUdVAQBAC0BABYA6eJOSdcmEqVp3eOeg290FebpZdl1aWqqEQCDoPj0++6jm6+K4eH3W8y96t8/pWpzVW1VRUft9/C1Opx5LStKkxEQNLC/XpaWlOrmigqOqAACg2SKgAkAQBQkuXfbwlDrD6ZDFH+qhF55Q2pOvNPg+XWWlOus/n+qs/3yqfFeiPuzVT++OHKMvY2L2e7tqm00fxMXpg7g4tf3tqOqFpaU6hKOqAACgmeGDeADYR5XDoRvG/V3fdzrKsM3u82nClMf0zBP3KbWo4KAfI6W4SBcveE9zcnP1xZ49urGoSGk+X7232+50alJSko7PyNDVqan6JCZG9d8KAAAgMnAEFQD+ICDp/pFj9J9jTzBsiy8r1ZS/j1P/5UtD+piH+3y6u6hIdxQV6ZPYWL0WH68lMTEK2Oq+8IzfZtOCuDgtiIvTIT6fLi4t1UWlpWrTgJALAABgVRxBBYA/eG3QUL12xnmGelx5mV6+/+aQh9M/ipZ0Znm5Xvd6tSw7W7cUFSmjAYFzl8OhJxMTdUKrVrrc7dZHsbGqarIuAQAAmg4BFQB+s6HdYXroutsNdbvPpxceHaPj160JWy/tfT7dVVSk/+7Zo396vepfXi57HQsx/S5gs2lRbKyGu906PiNDExMTlZ3qCVPHAAAAjUdABQBJFc4o3TLmEVXExBq2PThtsvp886UJXf16HsZp5eV62evVV3v26G+FhTqkAUdVsx0OPZuYqN4z39P9I+/UzrSMpm8WAACgkQioACBp0pWjgq7Ye9FH83TVv98yoSOjNn6/bi8u1td79ujl3FydVlYmRz1HVStiYvXi2RfqrzPe1d2jxionOTVM3QIAABw4AiqAFm9J9xM0bejlhnqnbT/roWlPmNDR/jkk9a+o0D/z8vTfPXs0prBQ7aqr93ubqqgovXrm+Tpl+jz933lXqMK5/2uwAgAAmIGACqBFK46L152j7zPUo6qq9Mzj9yquosKErhou0+/XrcXFWpadrddzc3VmWZmc+zmqWpTg0mPX3KL+z7+tpd2ywtgpAABA/QioAFq0Jy+9XrvSMw31MS9PUdfN603o6ODYJZ1SUaFpeXlavmePbioqUoLfX+f+vxzSVhc/9rzuGzlGJbFx4WsUAABgPwioAFqs751O/XPwRYZ6r9X/1Yh5r5nQUWi08vs1rqhIX+/Zo9tefUGJJcV17vvS2cN02nNv6Ouju4evQQAAgDoQUAG0SD5JY1NS5Hc4atVjKsr1+DOP1HtJl0iQGgjotjem6/MR5+qy9+fIXsfqv78c0lbDJk7TpMtvkM/OPwsAAMA8/CUCoEV6Mz5eq6KjDfVb35ih9nt2mtBR00kryNOjUyfq45sv0QnffRN0n4DdrmcvGq4rHnpG3qTkMHcIAADwK6fZDQBNxTdisPbsZ7tj+vxG339jNPbx0TDBxqkoLkGPT59rqB+xdZOum/dqONoyReetmzR73Ei9eNYwTbzqZpXHGq/5+kWPE3XmP17VjIf/pqM3bzChS3PU937m/QoAQHhwBBVAi/PchVcrJ9VjqD86ZaKi67lcS6SzBwK65l+z9dHNl6jnD2uC7rOj1SE67/EZ+vS43mHuDgAAtHQEVAAtyi8ZrTVzyCWG+tmfL9AJa1eZ0JE5Dt/5i+aMGaHbX31etiCr/ZbGxWv4fU9q1tkXmtAdAABoqQioAFqUiVfdpMqo2ueexlRWaNysZ0zqyDwOv1+j35ihlx+4RSmF+YbtfodDD4y8U5MTExX5S0YBAIBIQEAF0GJ82+ko/fvkgYb6tfNeU9u9u03oyBpOWfmV3r/1cnXesjHo9icTE/VAUpLqvqoqAABAaBBQAbQYT1x+g6GWnpejG99+MfzNWEy77F2ae8dw9VmxNOj2mS6X/paSouZ9hi4AADAbARVAi/D10d31WZZx0Z/Rr02Xq6zUhI6sJ7GsRP986HZd9PG7Qbe/FR+vG1JTVRnetgAAQAvSoMvMTJ06VStXrlRycrImT55s2B4IBDRr1iytWrVKMTExGjVqlA4//HBJ0meffaa5c3+9nMPQoUPVp0+f0HUPAA0QkDTpilGGevtd23XRgnfD3o+VOf0+/f2ZR5RUUqRpQy83bP8gLk4jJc0Jf2sAAKAFaNAR1D59+ujuu++uc/uqVau0e/duPfPMM7ruuus0Y8YMSVJxcbHmzJmjRx99VI8++qjmzJmj4uLi0HQOAA20pMeJ+m/XHob6ba9NU5TPZ0JH1maTdM/Mf+jOl6cG3f5xXJwudTo5kgoAAEKuQQG1S5cucrlcdW5fsWKFTj75ZNlsNh155JEqKSlRXl6eVq9erW7dusnlcsnlcqlbt25avXp1qHoHgHoFJD0e5OjpEVs3acjnH4W/oQhhk3Tz7H/q4al/D7p9vt2uUampqgpvWwAAoJlr0BTf+ni9XqWlpdV87/F45PV65fV65fF4auput1terzfofSxcuFALFy6UJE2cOLHW/VmN0+lsVH97QtBDY1+f+nqw8uvfUE39HBs7jvU9vhV+TuoTyte4se+rurzYq6++O6KLoX7Hq8/LEeT6nweqseNo9hjV58r331bmdX/TdQ6HAjZbrW0fxsVpTHS0XvT55GhED1b4fRMJPR6spnpvIfQYq8jCeEUOxiqyhCSghsKAAQM0YMCAmu9zcnJM7Gb/0tLSTO+vqR/f7OcXDmY/x3A8fiQ9x6Z4X/kkPXHZSEP9zz+t06Bli0PyGI3t2ewxaogzsrM1OS5Of0tJMYTUtxwOOcvL9XhBgWx13L4+kfAaREKPdbHCv1loGMYqsjBekYOxsp7WrVvXuS0kq/i63e5ag56bmyu32y23263c3NyautfrldvtDsVDAkC93o2L00+HdjTU73zl/w46TLVUF5aV6Yn8/KDbXk9I0INJSQqEtyUAANAMhSSgZmVlacmSJQoEAtqwYYPi4+OVmpqq7t27a82aNSouLlZxcbHWrFmj7t27h+IhAWC/qiRNTkw01I//fqVO+ebL8DfUDFxUVqbH6wipM1yuoK83AADAgWjQFN+nn35a69atU1FRkUaOHKlhw4apuvrXy7UPHDhQxx57rFauXKlbbrlF0dHRGjXq1wVJXC6XzjvvPI0bN06SdP755+93sSWgpaqS9J+YGC2NidF3UVHa5nCo5NWPVRIXr4BsSs/PVddN63Xsj9+px4/fqvuGtYr+7T2I4N6Mj9dWp/FX3J0vT+XoaSNcWlqqEptNDyUnG7Y9lZgol9+vkSUlJnQGAACagwYF1NGjR+93u81m07XXXht0W79+/dSvX78Dbgxo7gKSVkRFaV58vP4VGyuvY59lZlL/t8DYtsw22pbZRh/2/vW95C7I03mfvq9LPpqnjju2hrHryFAu6ekgR/NO+WaZTli7Ouz9NDfXlZQokJCg8UE+AHg4OVnxgYCuKC01oTMAABDpQjLFF0DDBSR9elxvnZWWpiHp6XopIcEYTuvhTU7V9KGXqd/zb+v22x7QtlaHNE2zEerlhATtDvKa3vHy/5nQTfN0t9+v6+u4rvXdycl6Jy4uzB0BAIDmgIAKhNGPh3bURY89r6sf/IdWR0c3+v4CdrvmDDhbfae9o8mXXa8KZ1QIuoxsxTabng1yKsHpSxfpmI0/mNBR82STdF9hoS4LMp03YLPptpQUfRgbG/7GAABARCOgAmFQ5XDo71eM0unPvqYvu2WF/P4ro6L1j4tH6IxnXtV3HTuH/P4jyYwgR6Rtfr9uf/V5kzpqvmySHiso0NAg03l9NptGpabq85iY8DcGAAAilmWugwo0V1sy2+jmMY9qTeej97tfbCCgAeXlOrW8XEdXVSn59suVUF6mgGzacOjhWnlUNy0/+hgtzuqtiujgf/T/dGhHDX3in3pk6t914Sfzm+LpWJrXZtPzQY6eDvnsI3X+ZbMJHTV/dklP5uerxGbTx/tM66202TQ8NVWv/ambsn741pwGAQBARCGgAk0kIGlu3zN076i7VBKfUOd+3SordXVJiU4vL1di4H9XkvTl/e8awj1//E49f/xOI959TfmuJM0eOFhTz79KeckphvuriI7RnaPv16rOXfWIpJZ0/GpqYqKK7LUnhjirq3Xbay+Y1FHLECXp//LydJXNpiX7TOsts9t11YP/0Ftjr1OXn38yp0EAABAxmOILNIFKp1N33nq/brtjfJ3htEN1tWbl5uqDnBwNKyurFU73J6W4UNfPfVX/GX6Obpr9TznruNzM66cP1flpafLaW8bbfLfdrlkJxtf6oo/fVYfdO0zoqGWJkTQzL0/HVVQYthW6EnX5w8/q59btwt8YAACIKC3jL1cgjPISk3XpI1P01sDBQbc7fNW6/dXntSg7WwMrKg76mpyJZSUa8/JUvX/rZeqyeX3QfVZGR2uIx6PtB7hKcCR6OjFR5bbar2ZsIKBb3pxhUkctT3wgoJe9XnWtrDRs25uapksfmaJdnlYmdAYAACIFARUIoc2t2+ucybP09Z97Bt3ebvd2zb1zuEa/MSNkU2//tGWj3v3bNbqgjnNON0VFaXBamn4Ics3K5mKLw6E34uMN9atLSpTpzTGho5YrKRDQa16vDg9yZH97Rmtd+shz8iYlm9AZAACIBM33L1YT+UYEP3IGa6lvnBzTD2yRobWHH6lLH5kib3Jq0O3nLvpAj0z9uxLLjJflaKzYygo98fR4dV+/Vg9ef4eqompfbmaPw6Hz09I0OydHXeuYEhzJJicmqnqfo6eJfr9GFRWZ1FHoROLvkzS/X2/m5mqIx6Od+3wwsrH94brioWf0xt2jGvxeCPV7FQAAWBdHUIEQWH3k0brwseeDhlNndbUmPvOI/jH5/iYJp7+zSbr8w3f0+j2jlFRsDGb5drsuTEvTt1HN61qp65xOzdtn9VhJGllcLHcDz+tF6LXx+fRGbq48Pp9h27dHHq1r75+s8jpWowYAAC0XARVopK+P7q5LJkxRoSvJsC2puEgv33+zLvn43bD1c8LaVZoz5lpl5GQbtuXb7brI49HqZhJSA5IeSE5WYJ+jpx6fTyNKmu7DADRMJ59Pr+fmKrGk2LDty25ZGjX2MVW1gPOjAQBAwxFQgUb4zzHH6Yrxz6o43njtzXa7d+jdv12lk9YsD3tfR23dpHl3XKMOQabzFtjturiZhNQPY2O1LMZ4FO6W4mIlcPTUErpWV+ufD41WTEW5YdvCE07WHaMfkN+EvgAAgDURUIGD9M1Rf9bw+59UWaxxeunh27dqzpgR6rR9qwmd/art3t2ak5Ojw4KE1EK7XZd4PPougkNquaTxScaj1h2qq3U5R08t5YS1q/XCo3cFvSTSvH5n6L7kZPFxAgAAkAioEaEgwaUZ51ysEfdM0inT3tFxL32gM9PS9FhiYrM7nzBS/OB06qoHnw4aTo/6+Se9fdcIHZJrnGIbbof4/ZqTk6OOVVWGbQW/TfddF6Gr+05zubQtSO8PFBSEbIVkhE6/FUv19BP3yeY3Hi99MSFBTyQmmtAVAACwmsj8y7QF+fdJ/XXfDXcpN8Vdq75H0uroaD2XmKj+5eV6sKBAhwdZjASht9Xh0CUejwqCnDvXdeMPeu3em5RaVGBCZ8Fl+v16OzdXF3o8+mmfDzTy7XZd6PFoTm6uOkfQ6r677HY96zJOqz6lvFynVlSY0BEaYvAXn6gowaVxN99j2PZ0YqKS/X5dx9FvAABaNI6gWlSFM0q33jFeo8b93RBO9/VpbKz6tWqlWfHxTJNrYnt+O38zO0g4PXrTer1x9w2WCqe/y/D79VZubtAjqV6HQxd6PNoYQUdSH01KUqm99q8vRyCghwoLZavjNrCGSz+ap7Gzng267aHkZL0ZZEVmAADQchBQLchnt2vUuIma1/eMBt+mymbTvSkpuis5WZFzHCyylNpsutLt1tYgQe7w7Vv1yn03KTnIaqVW0eq3kBps4aS9DoeGeTzaHAErqq6IitLc+HhD/aqSEh0RQUeBW7JRc17SyDkvBd12Z0qK3o+NDXNHAADAKgioFvTcsKv1yYmnHNRtX0tI0E2pqTIeJ0Nj+CTdlJKi76KjDdsO2btbr957o9IK8sLf2AHK9Pv1Vk6O2gcJcnscDg1LS9NWC4dUn6T7k5MNdbfPp9uLjNd+hXWNm/WsLvlwrqHut9l0U2qqlgRZnRkAADR/BFSLWdatp5665Lqg205btljz/na1Ph9xrh7Nz1frOo4W/SsuTnezKmZIPZqUpI+DTD1MLcjXq/fdpLZ7d5vQ1cFp89uR1DZBfn52ORy6wOPRdouG1BkJCVoT5EOCMUVFSuGyMhHFJmnC1Ik6+/MFhm2VNpuuSU3VChaBAwCgxSGgWog3KVk33zlB/n3Cgc3v1+P/eFjTJtypnj9+p8N2btOVpaVasndvnZfTeD0hQVODLCKDA/dOXJyeD/JaxlSU66UHb9UR27aEv6lGaufz6a3cXGUGWVhrh9OpCzwe7bRb69fDzw6HHg+y0muXqipdUlpqQkdoLIffr6eevF/9yo3XSC2z23WFx6MfIujcaAAA0HjW+gu0hZt82UjtdacZ6je9NUsXLXjPsPhLXCCgiQUFergg+KI8jyYl6d+cy9Uo3zudGpOSEnTb05MfUPcNa8PbUAh18Pn0dk6OMoKE1F+cTl2QlqYdFjmSWi3pltRUle8Tmm2BgB7Nz5c1usTBiK6u1rS8PB0fZPXlgt+u17vlkLYmdAYAAMxAQLWIn9p10OuDzjXUT/z2G9322rT93vaakhI9kp8fdNvfUlIsfU6hlXltNl3rdqvcZlwXdmxhoc5c+qkJXYXW4b8dSU0LElK3OJ0a4vFoowV+fp5KTNTKIFN7rykp0XFBViZGZIkLBPSi16ujg4xltsOhSx+Zot2edBM6AwAA4UZAtYiJV90sn6P2VDZXabGemXSPnP76r296dWmpris2riBbbLfrRhZNOmB+m023pKZqW5DphUNKS3VTkNc6UnWqrtbs3Fy5g4TUnU6nhqal6XsTp1l+FR2tZ4JMsW5fXa27WBip2UgOBPRabq4OC3Ju9LbMNrr04eeUl2hcIAsAADQvBFQLWH9ox6Cr9t741ixlenMafD/3FRZqUFmZob4qOlqTgpy7h7pNP/dSLQ4yPfpPVVWaVFDQ7K61eVR1td7MzVWK32/Ylutw6Py0NH0V5AhmU/vJ6dRwt1v+fY5iOwIBPZOXpwQWRmpW0v1+zc7N1SFBPiz56dCOuuKhZ1QSy3VSAQBozgioFvDC0MsMtTbZuzT83TcO6H7skp7Kz1e7IEcgpiQm6gsTAkYkWnNEF/39ypsM9WS/XzO8XsU301B0dHW13s7JUXqQcFBkt+tij0ezg6xk3FR2OBy62ONRfpDFmm4rKmJqbzPVxufTm3Uc0V/T+WiN/tt4wwcWAACg+SCgmmyXp5Xe7XO6oT5yzsuKrao84PtLCgQ0JS9PjiAh6s6UFJXyh91+FcUl6Ma7HlV1kCmtz+TlqUOQP5qbky7V1ZqXk6O2QT7kqLTZdHtqqh5KSlJTvwq5drsudru1K8j5r8dXVOjmZjTFGkadqqv1uterxCBH9D/u1VeTLr/BhK4AAEA4EFBN9vqgIYYwlFqQr2EL5x/0ffasqtKdQc7N2+Z0Br1MB34VkHTPjWP1S5AVQ0cUF2tAkFVGm6PDfD69m5OjI+o4QjnN5dKVbre8TfRhR7HNpsvdbm0Kcg3MDtXVeiEvT1x4pPn7c1WVXvR6FRvkw7YpF16juX2NH+wBAIDIR0A1kd9m0zv9zzLUr/z3W4prZBi6sbhYfwlyHzMTErQqyB/+kOb1PV3vBvmj98+VlRpXWGhCR+Y5xO/X3NxcHVsZ/Cj+4thYndqqlZZ16xnSx62QdI3brTVBpqO38vn0em6uWgU5qobm6cTKSj2Tlxd021233KuVnbuGuSMAANDUCKgm+vLPPbU9o3Wtmt3n0yUfzW30fdslPZ6fbzj64LfZdGdKiipNXJXVina703T/yDsN9QS/X1Pz8hRjQk9mc/v9mpOTo/NKS4Nu3+1w6OIJ/6e7R41VvqvxR+YLJI1wu7U0xvhqJ/n9ei03V4c28ynWMDqzvFx/e+X/DPWK6Bhdd88k7U1xm9AVAABoKgRUE7116mBD7ZSVXx3Qyr37c7jPp9uDTPX9ISpK08+9NCSP0RwEJI29+R4VupIM2x4tKNDhLTgUxUr6R36+7i0okC3IVMuA3a5XzzxffV94R28NOFvV9oO7ZuqKqCgdFxWlT4OsnBz72zUyuwQ5LxYtwy1vztTgzz821LM96bp5zIQmPycaAACEDwHVJIXxCfqwVz9D/YJGnHsazPXFxeoaZJrmsxcO58L3v5kz4CwtOv6vhvo5paU6P8hle1oam6QbSkr0ktcb9DI0kpSb4tYdtz2gvi/M0RsDz1F5dMOOOe+w2/W35GQNSUvT1iDntDoCAT3v9eqEOqYao2WwSXri6fE6Zv1aw7ZlxxynJzi3HgCAZoOAapIPe/dX+T5Hi5KLCnTqV0tC+jhOSZPz8w2r+pbGxeuxq28O6WNFol2eVnpoxN8M9fS8HD1SUGBCR9bVv6JCC7Kzg57b/Lutrdvprlvv07GvLdCtd4zXnLg4/eR0qthmU0BSic2mzQ6H5sbF6ZrUVJ2YkaE3ExIUCBJObYGAJufn69QWsjgV9i+2skLTJ9whT77XsO2ZxEQtDDI1HAAARB5ORDwIe87t1ej7+LBXX0NtyGcfK6Y69Nd27FpdrStLSvRPl6tWfV7fM3TZ++/ouB/WGG7jG2GcfvxHjumhPdJ7MOrrsT4BSeNuGqfCIOdPPvbcY0r+6vMWP3Vw39c4U9LrdrtmDb5Iky+9XiXxCUFvVxKfoHl9z9C8P9TsgUCDr1/p8vv1dH6+Ti8vP8jOw6exP4eNvX1Lkpm7V88+fo8ufWSKAvtcH/fW1FR9kp2t1kGO8vMaAwAQOTiCaoKiuAT959gTDPVg51iFyt+KipQa5FzKB0beKZ+9Zf4YfHLCyUGn9p676AMN/OpzEzqKDA6/X9e++7oWjzxfZy1Z0ODbNTScdq+s1IK9eyMinCL8TlqzXH979QVDPd9u162pqS3+QyUAACJdy0wmJlt8XG9VRtW+jEa6N0c9f/y2yR4zJRDQ2CALJn3f6Si9OfCcJntcqyqPitZD191uqLfK3auHXnjChI4iT2buXk39+916e8y1OuWbZY2+v5RAQOMLCvRuTg6r9WK/bnrrn+qzYqmhviwmRjMSgh/VBwAAkYGAaoJg03sHfblY9iCrpIbSxaWl+nOQxWYev+JG5QdZwbY5e+G8y7Uts62h/tALTyiluGVd87SxTli7Wq/cf4v+devluuCT+UoqNn4Qsj+H+Hy6o7BQ66qqNLykRFylF/WxBwJ6evL9apW717Dt8aQkbXYc3GrSAADAfATUMKtwRmlxVm9DfdCyxU3+2A5JDxcaw1decoqevOz6Jn98q9ienqnnhl1tqJ+06mudsfRTEzpqHo7Z+IMmPz1e31w6ULMevFXXz3lZJ1RUqG11taJ++/AlNhBQK59Px1dUaERxsV7PzdVXe/botuJieUzuH5HFXVigpyffL9s+55yW/3at5+DrTQMAAKtjkaQwW350d5XGxdeqJRcV6MTvvgnL4x9XWamhpaWaG1+7h5fPOF+XfvCOOv+yOSx9mOnha29TRUztFZSd1dV66IVJathZktifmOoq9V++VP2XL5Wj1wBJkl9StaTo/d4SODAnrVmuq/41W7POubhW/auYGL0cH6+rSktN6gwAABwsjqCG2ec9/2KonbLyK0WF8Zy7ewoLFV9W+w83v8OhCcNvDVsPZlnS/QR9eFJ/Q/2a+W/oiG1bwt9QC2EX4RRN466Xpqh9dbWhPiEpSb8w1RcAgIhDQA2zz3sEC6hfhrWHTL9ft7w501D/LKu3PgsSoJuLSqdTD468w1BP9+bo1tdnmNARgMaKryjXpPx8Q73UbtedKSlq2jP7AQBAqBFQw2i3O00/HnaEoX7yN+ENqJJ0zXtvqN3uHYb6w8NHq9rePI86vHj2hdrY7jBD/e5/PqPEshITOgIQCidVVuqyEuN7+D8xMZoTF2dCRwAA4GARUMNoSZCjp3/avEEZeblh7yW2qlLjZj1jqP90aEe9MWhI2PtpantSPXrqkusM9ay1qzV08QcmdAQglO4tLFTrIFN9H01KUvE+5/0DAADrIqCGUbDpvSev/MqETn515n8+Vdba1Yb65MtGqiDBFf6GmtCj19yqkvja10e0+3x6+PnHWRgJaAYSAwE9XlBgqGc7HHrmouEmdAQAAA4GATVMApKWHZNlqIf7/NM/skl6YPqThro3OVXPXXhN+BtqIv/tcozm9TvDUL/sw3d09OYNJnQEoCn0rajQGWVlhvrMcy7R5tbtTegIAAAcKAJqmPzcur1yU9y1ajEV5TouyBHMcDrmp3U6d5FxiuuswRdpS2YbEzoKLZ/drvtvGGOopxbk645XnjehIwBN6f7CQsUGai+NVBUVpfHX3W5SRwAA4EAQUMNk+dHdDbXuG9Yqproq/M3s466Xpii2vLxWrTIqWo9dfYtJHYXOa6cP1brDOxvqY16eopTiQhM6AtCU2vl8GlVcbKgvOu4kLe7Zy4SOAADAgSCghsnyLt0NtePWrQl/I0G0ztmj6+e9Yqh/eFJ/fX30sSZ0FBrepGRNuvwGQ/3PP63TRQveM6EjAOEwqrg46IJJf7/qRvltnHUOAICVEVDDZPnRxxhqZk/v/aORc15Wq9y9hvr4EbdF7B90j19xowoSkw31h//vcTn8fhM6AhAOcYGA7i80zpBYd3hn/evkgSZ0BAAAGoqAGgZ7U9z6uc2htWo2v189fvzWpI6MEsrLNOblqYb6d0d00dy+xgWGrG5Npz/pjdOGGOoXfDJfPdZ/H/6GAITVWeXl6lFZaag/cdlIVTma57WeAQBoDgioYfDNn7oZap23blJyifE8KTOd/+m/1XXjj4b641eOUmlMrAkdHRy/zab7bxijgL32j3diSbHGvvicSV0BCCebpLFBjqJubd1Os089J/wNAQCABiGghkHw809Xh72P+tgDAd034ylDfXdahl4YerkJHR2cd/qfqVVH/dlQv+21F5Se7zWhIwBm6F1ZqZP3WQBOkp6+ZITKYmJM6AgAANSHgBoGwVbwtdL5p3/0l+++0WnLFhvqz59/hXZ70k3o6MAUJLj02FU3G+pHbtmkK//9lgkdATDT2KIiQy3bk66Xz7zAhG4AAEB9CKhNrCwmRt93PMpQt+IR1N/dPesZRVXVvvxNWWycHr9ilEkdNdxTl1ynnFSPoT7+hccV5fOZ0BEAMx1TVaXT//OpoT5t6GUcRQUAwIIIqE1s9ZFdVe101qq1zt6tNnv3mNRR/Q7buS3o0cY5A87Wt52MYdsq1h/aUS+dPcxQP2vJAvX69hsTOgJgBXe+MlX2fT6g2puaptdPO9ekjgAAQF0IqE0s2PmnWT9Y4/qn+3PLmzOUUphvqD943R2WvOxMQNL9I++Uz1H7w4C48jLdO/Mf5jQFwBI6bd+qs7/4xFCffu5lrOgLAIDFEFCbmNWvf1qXlOIi3fb6dEN9xdHdNfvUwSZ0tH//+uup+rJblqF+85sz1TrHukerAYTHzW/OlG2f6x/vbJWp908aYFJHAAAgGGf9u+Bg+ez2oJeYsfL5p3902Qdz9MqZ52tju8Nq1ScMv1UDi0vVap8/9sxSEhunCcNvNdQ77PhFI+a9ZkJHCBXfiP1/GOKYPj9MnbRswcYhlB/71DfOobj9kdt+1qlfL9GCv/SpVZ829HKd8/nHst68EAAAWiaOoDahHzt0UnG8q1YtsaRYnbduMqmjAxPl82n8/z1uqBe6kvRgUpIJHQX31KXXaVd6pqH+4LTJiqmuCnILAC3RdXNfMdS+73SUvuzW04RuAABAMATUJrSys/FanD1/WCOHRY48NsRJa5brvIX/NtTfi4/XIgusgPlDh06aec7FhvqAr5eo34qlJnQEwKqOW7dGx/74naE+LYKu8wwAQHNHQG1C3wVZ8fbYH783oZPGuW/mU0otyDfUxyUnq9TEBZP8NpvuvnGcYWGkmIpyPTBtskldAbAqm6Tr5r5qqC867iStb394+BsCAAAGBNQm9H2nPxlqf974gwmdNI67sED3zXjKUN/udOqJxEQTOvrVW6cO1jddjItQ3Tx7lg7dvcOEjgBY3aAvF6vd7u2G+oxzLzWhGwAAsC8CahOpcEZp/aEdDfVIDKiSdN6i99V79deG+vSEBH0XFRX2fvba7Xr06psN9Y7btuj6d14Oez8AIoPD79e1775hqM/re7qyUz0mdAQAAP6IgNpEfuzQSVX7BLdWuXuVkZdrUkeNY5P02HOPKaaivFbdb7NpTHKyqsPYS0DS2ORk5SelGLY9MnUiCyMB2K9hn8xXclFBrVplVLReOmuYSR0BAIDfEVCbyHfNZHrvH3XYtV23vjHDUP82Olr/TEgIWx/vxMXpo7g4Q33I4g/V+9sVYesDQGRKKC/T5R+8Y6i/csZ5Ko82f/E3AABaMgJqE/nuCOMCSX/e+KMJnYTW9XNfUectGw31SYmJ2uJwNPnj77TbdV9ysqHuLsgLep4sAARz5b9mK7qqslYtPylF808eaFJHAABAIqA2me87GgNq102RH1CjfD5NfHaCbIFArXqp3a4bU1NVWcftQiEg6c6UFBXajT+2E6ZMVHq+twkfHUBzkpGXq7M/X2Cov3TWBSZ0AwAAfkdAbQKVTqfWd+hkqHeL8Cm+v+v543e6srTUUF8dHa3Hk5Ka7HFfjo/XZ7GxhvqQxR/qzKWfNtnjAmiernz/bUPtuyO66PvDO5vQDQAAkAioTWL9oR1VGRVdq5ael6OM3L0mdRR6YwsL1b7auDTS/7lc+leQENlY30VF6cEgU3tb5e7V+OcnhfzxADR/3TesVbcNaw312QPPMaEbAAAgEVCbRPAFkn6UzYRemkpiIKDn8vLk2GeqryTdnpKiH53OkD3WLrtdV7ndqrQZX8HHn3lEKcWFIXssAC3LxR+/a6jN63s6iyUBAGASAmoTaI4r+AbTs6pKY4qKDPVSu12XejwhWTSp2GbTlR6Pdge5r0s/eEf9Vixt9GMAaLkGf75AceVltWqFrkR90LufSR0BANCyEVCbwHedmucKvsHcWFysM8rKDPXdDocu8Hi0rREhtVrSDampWrvP9WQlqUtVlR6Y/uRB3zcASFJiWYnO+uITQ51pvgAAmIOAGmJVDod+POwIQ/3PPzW/I6iSZJP0VH6+jqiqMmzb6XTqAo9HOw4ipFZJuiUlRYuCnM+a7vNplter2MqKg+gYAGq76OP3DLUvu2Xp59btTOgGAICWrUEnCq5evVqzZs2S3+9X//79NWTIkFrbX3zxRa1d++tCE5WVlSooKNCLL74oSbrwwgvVvn17SVJaWpruuuuu0HVvQZvbHGpYIMmT71VmbrZJHTU9VyCgF71enZeWZpiKu83p1DCPR6/k5upwn69B91dss+nG1FQtDBJOY/1+vej1qq3Pp4bdGwDsX9YPa9Rp28/a2O6wWvXZpw7W2JemmNQVAAAtU70B1e/3a+bMmbr33nvl8Xg0btw4ZWVlqW3btjX7XHXVVTVff/jhh/r5559rvo+OjtakSS1nldX1h3Y01I7a8lOzWiApmA4+n2bn5Oj8tDTt3SekbnE6dWZ6uh4sKNCwsrL9vhYro6J0e0qKfgoyrdcWCGhKfr66BzlaCwAHyybpoo/f1SPX3lar/vaAs3XHK8/L6efjMAAAwqXeKb4bN25UZmamMjIy5HQ61atXLy1fvrzO/ZcuXaqTTjoppE1Gkg1BAmrnLZtM6CT8Ovl8eis3V54gR0oL7Xbdnpqqs9PSND0hwTDtd6PDoTuSk3V2enrQcCpJDxcUaFB5eZP0DqBlG7roAzn3uXTWXneaFh3X26SOAABomeoNqF6vVx6Pp+Z7j8cjr9cbdN+9e/cqOztbXbt2ralVVVVp7Nixuueee/Tf//43BC1bW7AjqJ23toyAKklHVlfrzdxcpfj9Qbevio7Wg8nJOj4jQ/3S03Wx260TWrXSKRkZeiMhIehtbIGAHs/P19WlpU3ZOoAWLK0gT6d+9bmh/uZpQ8LfDAAALVjoLlapX4+ennjiibLb/5d7p06dKrfbrT179mj8+PFq3769MjMzDbdduHChFi5cKEmaOHGi0tLSQtlaSO3Zz7ZwBdTGvj77ew6NffyTJS32+XSezabNQa5d+rv1UVFaX8fR0t8lBAKaWV2tc+Pjpfj4Wtsa+xzMVt8YhuL5WfnnZF9Op9Owf32P35D7j/SfE4TPxQve1Ycn9a9VW5TVW7vdaTrGwv8m1SfYewvWxFhFFsYrcjBWkaXegOp2u5Wbm1vzfW5urtxud9B9ly1bpuHDhxtuL0kZGRnq0qWLtmzZEjSgDhgwQAMGDKj5Picnp2HPwELKYmK09ZC2hvoRv/wcZO/GMfv1qe/xW0n6l82me5OTNW+fYNlQXaqq9FxenjpXVyvyfhrqF44xtPrPyR+lpaUdcL9mPz80L39d9bVaZ+/Wzlb/+zfK73BoTv+z1CaCf9YO5r0FczBWkYXxihyMlfW0bt26zm31TvHt2LGjdu3apezsbFVXV2vZsmXKysoy7Ldjxw6VlJToyCOPrKkVFxer6rcFbQoLC7V+/fpaiys1Nz+1O0wBe+2XtO2enUosKzGpI3OlBAJ6Lj9fL+fmqvMBLGyU6Pfr4YICfbh3rzrvc04YADQVh9+vYZ/MN9TfPG2Igp+0AAAAQq3eI6gOh0PXXHONJkyYIL/fr759+6pdu3aaPXu2OnbsWBNWly5dql69esn2hymdO3bs0LRp02S32+X3+zVkyJBmHVA3tDdO7z3yl80mdGIt/Ssq1G/vXq13OvVhbKzej4vTD/tM7bUFAupSXa3zS0t1QWmpUgMBk7oF0JIN+2S+/nHxtbU+bPzlkLZakZOj4ysrTewMAICWoUHnoPbo0UM9evSoVbvwwgtrfT9s2DDD7Tp37qzJkyc3or3IEuz80yNb0AJJ+2OTdFR1tY4qLtZtxcXa5nBos9OpKknpfr+OrK5WHKE05HwjBu93u2O68WhROB//jw7mXNEDuX+gIdru3a2TVv9XX/Q4sVb97eVL1PO5R+u8XVO/lxrL7N8FAAA0VL1TfNFwLfkSMweqnc+nUyoqNKCiQsdUVRFOAVjGeYveN9T+/dcBqnDuf1E3AADQeATUEGrpl5gBgOZg0LLFii+rfVmrQleSFh3fcq/xDQBAuBBQQ6QwPqHWyo+SZPf51Gn7FnMaAgAclPiKcp325WeG+ty+Z4S/GQAAWhgCaogEm97bYdd2xVZWmNANAKAxgk3zXXTcScp3JZnQDQAALQcBNUSY3gsAzUevNSuU7q19zbyqqCj966+nmtQRAAAtAwE1RIKv4LvRhE4AAI3l9Ps05LOPDPW5/ZjmCwBAUyKghkjQFXw5ggoAEevcxR8aat90OUbb0zOD7A0AAEKBgBoiTPEFgObl6M3r1emXzYb6v04eaEI3AAC0DATUEMhJTlVuirtWLbqqUh12bjOpIwBAY9kknfP5x4b6/FNOC38zAAC0EATUENhw6OGGWsdtWxTl85nQDQAgVIIF1LUdO2tj20NN6AYAgOaPgBoC6w/tZKgdGWRaGAAgsnTYtV3dNqw11N/jKCoAAE2CgBoCnH8KAM3X4CULDLV/nXyaAib0AgBAc0dADYHgl5ghoAJAc3D2kk9k8/tr1Ta3PVTfd+xsUkcAADRfBNRGCohLzABAc3ZIbraOX7vKUGexJAAAQo+A2ki70jJUlOCqVYsrL1O7PTtN6ggAEGqDPzdO851/8kD5bTYTugEAoPkioDZS8Om9m2UPcHYSADQXZyz9VA5fda3arvRMrfhTN5M6AgCgeSKgNhILJAFA8+cpzNdfV31tqDPNFwCA0CKgNhIBFQBahmDTfN8/aYCq7Q4TugEAoHkioDbS+g7BAupGEzoBADSl0778TDEV5bVquSluLe1+nEkdAQDQ/BBQG8Fnt2tj28MMdS4xAwDNT2JZifotX2qov8c0XwAAQoaA2gjbMlqrPDa2Vi25qEAZ3hyTOgIANKXBS4zTfD/+S1+VB9kXAAAcOAJqI9S1gi8XHQCA5qn/8v/IVVpcq1aU4NLifT6sBAAAB4eA2gjrD+1kqLFAEgA0X7GVFRr45eeG+ntxcSZ0AwBA8+M0u4FI9lP7IOef/rLZhE6sxzdicKNu75g+P0SdWFdjXyMA5hi8ZIHm9j+zVu2TmBiV2GxK4BrYAAA0CkdQG2FT2w6G2hEEVABo1v666iulFuTXqpXb7fqYab4AADQaAfUg+W02bQwSUDtu3xL2XgAA4RPl8+mMpZ8a6kzzBQCg8QioB2lnWoZhBd/EkmJW8AWAFiDYar6fx8Qoz8YyeQAANAYB9SBtatfBUOu4fQsr+AJAC3D82lXKyMmuVauy2fQBR1EBAGgUAupB+qmdcYGkTtt+NqETAEC4Ofx+nf3FJ4Y603wBAGgcAupBCrZAEuefAkDLEWya77LoaO2x808rAAAHi39FD9LGIFN8O23bEvY+AADmOGbDWh26c1utWsBm0784igoAwEEjoB6kYEdQCagA0HLYFPwoKtN8AQA4eATUg5DvSlROqqdWzVldrfa7t5vUEQDADMEC6sroaP3icJjQDQAAkY+AehA2tznUUDt013ZF+XwmdAMAMEvnrZvUectGQ30+R1EBADgoBNSDsKmtMaAevmOrCZ0AAMx2zucfG2rvElABADgoBNSDEOwIKiv4AkDLdFaQab4/REVpg9NpQjcAAEQ2AupB2Bz0EjMcQQWAlqjD7h06trLSUGexJAAADhwB9SBsDDbFl4AKAC3WOWVlhtq7cXEKmNALAACRjIB6gHyStrZuZ6h33LEl7L0AAKzh7LIy2QK14+gWp1PfRkWZ1BEAAJGJgHqAtjkcqoyKrlVLKcyXu7DApI4AAGbL9Pt1YpBpviyWBADAgSGgHqBNQRa96MgKvgDQ4g0JMs13Xlycqk3oBQCASEVAPUDBAirnnwIAziwrU9Q+03z3Ohz6LCbGpI4AAIg8BNQDFDSgcgQVAFq81EBAp5aXG+pvx8eb0A0AAJGJgHqAggXUTtu2hL8RAIDlXFBaaqgtiI1Vvs1mQjcAAEQeAuoB2swRVABAHfpWVMjj89WqVdpsms9iSQAANAgB9QAU2Wza43DUqjl81Tp013aTOgIAWEmUpHODLJbENF8AABqGgHoAgh09bbd7p6KrWaMRAPCrYNN8V0ZHa+M+H3ACAAAjY+JCnTZaaHqvb8RgUx7XKo+P0GAcgdDrWl2tP1VV6YeoqFr1t+PjNa6oyKSuzFff7xvH9Plh6gQAYGUcQT0AQa+ByiVmAAD7CHYU9Z34ePmC7AsAAP6HgHoAuMQMAKAhhpaVybHPNVF3ORxaGh1tUkcAAEQGAuoB4AgqAKAh0v1+9amoMNTfYrEkAAD2i4DaQH5JPwdZ4IIjqACAYIYFmeb7QVycvFwTFQCAOhFQG2inw6Fye+2XK6m4SOl5uSZ1BACwslPLy5W6zzVRK2w2vcNRVAAA6kRAbaC6zj/lc3AAQDAxkoYFuSbqa/HxChh3BwAAIqA2WNCAyvmnAID9uKSkxFD7KSpKX7FYEgAAQRFQGyjoAkmcfwoA2I9OPp/+EmSxpH8mJJjQDQAA1mdMXQjq/NJSHVpdrU1OpzZt+kGb2hyqjtu2mN0WAMDiLi8p0ZcxMbVqH8XGapvDoXY+rowKAMAfEVAb6NiqKh1bVSVJ8o0bKUmcQwQAqNcZ5eXK9Pm0+w8rwfttNr2YkKD7CgtN7AwAAOthim8jsEASAKA+UZKuDHIu6hvx8SrlkjMAANRCQAUAoIldVlqq2EDteTcFdrvejoszqSMAAKyJgAoAQBNz+/06t7TUUP9nQgKniwAA8AcEVAAAwmB4kGm+G6OitGSfBZQAAGjJCKgAAITBn6qr1SvIJWemcckZAABqEFABAAiTa4McRf0sNlaroqJM6AYAAOshoAIAECYDysvVobraUH8qMdGEbgAAsB4CKgAAYeKQdHNRkaH+aWysVnMUFQAAAioAAOF0XlmZ2nMUFQCAoAioAACEUZSkm4uLDfWFsbH6lqOoAIAWjoAKAECYnV9aqrZBjqI+lpjIdVEBAC0aARUAgDCLVvCjqEtiY/VhbGz4GwIAwCIIqAAAmGBYaanaBTmK+kBSkkptNhM6AgDAfE6zGwAAINL5Rgze73bH9PmGWrSkhwoLdY3bXau+0+nUMy6Xxv5htd+Duf9Qs0IPAIDmr0EBdfXq1Zo1a5b8fr/69++vIUOG1Nr+2Wef6ZVXXpH7t39kBw0apP79+9dsmzt3riRp6NCh6tOnT+i6BwAggg0sL1e/8nIt2mda7wsul4aVlupwn8+kzgAAMEe9AdXv92vmzJm699575fF4NG7cOGVlZalt27a19uvVq5eGDx9eq1ZcXKw5c+Zo4sSJkqSxY8cqKytLLpcrhE8BAIDIZJM0vqBA/4mJUeUfpvVW2my6PzlZr3i9YrIvAKAlqfcc1I0bNyozM1MZGRlyOp3q1auXli9f3qA7X716tbp16yaXyyWXy6Vu3bpp9erVje0ZAIBm4zCfTyODLJi0ODZWH7FgEgCghak3oHq9Xnk8nprvPR6PvF6vYb+vv/5ad9xxhyZPnqycnJygt3W73UFvCwBAS3ZLcbHaBFkwaVxysnLsrGcIAGg5QrJIUs+ePdW7d29FRUXpk08+0ZQpU/TAAw8c0H0sXLhQCxculCRNnDhRaWlpoWitSewxu4EWoCHjzzgAiBQN+Z32VCCgYfvU9jocurNVK02z2WQP1H2F1P3dv9NZ/z/1ofidW999NPb2LYHT6eR1iCCMV+RgrCJLvf9qud1u5ebm1nyfm5tbsxjS7xITE2u+7t+/v1599dWa265bt65mm9frVZcuXYI+zoABAzRgwICa738/CouWifEH0Jw05HdaL0n93G7DgkkL7Ha9MPRy3fDOywd1/w35oywUv3Mbex/83v91rHgdIgfjFTkYK+tp3bp1ndvqnTfUsWNH7dq1S9nZ2aqurtayZcuUlZVVa5+8vLyar1esWFGzgFL37t21Zs0aFRcXq7i4WGvWrFH37t0P8mkAANB82SQ9kZ8vd5CVe/9+5Y1alNU7/E0BABBm9R5BdTgcuuaaazRhwgT5/X717dtX7dq10+zZs9WxY0dlZWXpww8/1IoVK+RwOORyuTRq1ChJksvl0nnnnadx48ZJks4//3xW8AUAoA4Zfr+ezs/XFX9Yv0GS/A6HRo77u16790Yd98Mak7oDAKDpNegc1B49eqhHjx61ahdeeGHN15dccokuueSSoLft16+f+vXr14gWAQBoOfpXVOj64mK9sM8HuuWxsbrqoX9o9tjr1XXzepO6AwCgabE0IAAAFnN3YaFOLi831IsSXLpkwhR90f14E7oCAKDpEVABALAYp6QX8vL058pKw7b8pBRdPv5ZTTv3UtW9ri8AAJGJgAoAgAUlBQJ6zetVp6oqwza/w6FHrr1Nt9z5iMpiYkzoDgCApkFABQDAojx+v97MzVX7XduDbn+vzyCd/szrWkxIBQA0EwRUAAAs7BC/X+/dfpV6rVkedPvmtofqMo9HF7vd+k90NNN+AQARjYAKAIDFeQrz9eq9N+naea/Vuc+S2FhdmJam09PS9GJ8vHLt/BMPAIg8/OsFAEAEcPp9un/GU3r6ifsUU2Fc4fd330VH656UFB2bkaHL3G5Ns9u1PT0zjJ0CAHDwGnQdVAAAYA1DF3+oozdv0N2jxmp512Pr3M9ns2lxbKwWS9KL/9aRWzap74ql6rdiqbLWrVaUzxe2ngEAaCgCKgAAEabz1k2ac9cIvXfKaZp82Uhtbd2u3tts6NBRGzp01AvnX6HEkmKdtOpr9VuxVH1WLFXrMPQMAEBDEFABAIhANklDPv9YZ3/xiRa89JGed7m0Kjq6QbctSnDpw5P668OT+kuSTqyo0LDSUp1ZXi5XgGWWAADm4RxUAAAimMPv11nl5fpXTo4+zs7WqKIita6uPqD7+ComRrenpiorI0OPJSYqhwWWAAAm4V8gAACaAZukrtXVuqeoSF9nZ2v+3r0aXVSkHn5/g++jyG7Xc4mJOqFVK92flKTdBFUAQJjxLw8AAM2MXVLPqirdWVSkL6urteKy0zT5qQd15hefKLGkuN7bl9vtmuly6eRWrfTPhASxnBIAIFw4BxWW5Bsx2OwWAKDZaJWXqwsW/lsXLPy3qhwOrTyqmxYd11sLTuyjTe061Hm7Ertd9yUna25cnB477Ah1+fmn8DUNAGiROIIKAEALEuXz6YS1qzTuxee0aOT5mn/blbq0pEQx+1kcaVV0tM78xyv6v/OuEEsoAQCaEgEVAIAWyiap+4a1erygQF/u2aORxcWKr+OcVZ/DqceuuUXX3/O4CuMTwtsoAKDFIKACAABl+P26r7BQX+/Zo8tLSurc76Ne/XTOky9pe3pmGLsDALQUBFQAAFDDHQhoYkGB5uXk6IiqqqD7bGrXQcP+Pk2/ZLQOc3cAgOaOgAoAAAyOr6zUx3v36vri4Kv+bs9orWETp2lLZpswdwYAaM4IqAAAIKgYSfcXFuoFr1euUmNQ3dkqU8P+Pk0/t24X/uYAAM0SARUAAOzXWeXlmnvHcHnyvYZtu9MydMHEadro5Mp1AIDGI6ACAIB6HbV1k2aPvV7peTmGbdmedJ3v8WiLw2FCZwCA5oSACgAAGuTIbT9r9tjr1Sp3r2HbXodDV7jdyrfZTOgMANBcEFABAECDddq+VW+PvU6ZOXsM2zZFRWmE261KE/oCADQPBFQAAHBADtu5TW/ddZ1aZ+82bFsWE6O7k5MVMKEvAEDkI6ACAIAD1mH3Dr18/81KLDGu7vtGQoJmx8WZ0BUAINIRUAEAwEE5ctvP+r/H7pLDV23Ydk9Kin5gZV8AwAEioAIAgIN28qqvNf7/Jhnq5Tabrk9NVQmLJgEADgABFQAANMrlH76jC0tLDfVNUVEay/moAIADQEAFAACNNqGgQJ2rqgz1ufHxeiM+3oSOAACRiIAKAAAaLS4Q0At5eYrz+w3bHkhK0i8ZrU3oCgAQaQioAAAgJI6ortbEggJDvdRu15hb7mWqLwCgXgRUAAAQMueXlemikhJDfVn34/X6oHNN6AgAEEkIqAAAIKQeLCxU62rjpWcmDL9VO9IzTOgIABApCKgAACCkEgMBTQoy1bc43qWxN9/DVF8AQJ0IqAAAIOT6VFQEner7ec9emjPgLBM6AgBEAgIqAABoEvcXFirT5zPUHxpxu3a700zoCABgdU6zGwAAoKXzjRjcLB8/ORDQxPx8XeXx1KoXupJ09013a+b422Vrkkc+cPW9Bo7p88PUCQC0bBxBBQAATebUigoNLS011BeecLL+dfJAEzoCAFgZARUAADSphwoKlJ6XY6iPv/Y2FcfFm9ARAMCqCKgAAKBJuQMBPTL174Z6tiddT11ynQkdAQCsioAKAACa3OnLFmvgl58Z6v885yKtP7Rj+BsCAFgSARUAAITFA9MmK7a8vFbN53Dq3hvGcG1UAIAkAioAAAiTdtm7dPNb/zTUv/5zT82LizOhIwCA1RBQAQBA2Fz3zivqsOMXQ/3hpCQV2qxy0RkAgFkIqAAAIGxiqqs0/oVJhnq2w6HJiYkmdAQAsBICKgAACKs+33yp05cuMtRnJSToB6fThI4AAFZBQAUAAGF3//TJiisvq1Xz2Wy6PzmZBZMAoAUjoAIAgLBrs3ePbn5zpqG+LCZG78fGmtARAMAKCKgAAMAUI+a9FnTBpPFJSSpjwSQAaJEIqAAAwBQx1VV6YPpkQ32H06kpLpcJHQEAzEZABQAApum/fKn6Lf+PoT7V5dIvDocJHQEAzERABQAAprp/2pOKCtReGqnCZtPDSUkmdQQAMAsBFQAAmOrwnb9oRHGxof5BXJyWREeb0BEAwCwEVAAAYLpbi4uV4fMZ6g8kJ6vKhH4AAOYgoAIAANO5AgHdU1hoqG+IitJLCQkmdAQAMAMBFQAAWMLQsjL1rKw01CcnJirHzp8sANAS8NseAABYgk3ShIIC2fZZMKnQbtfExERzmgIAhBUBFQAAWMafq6p0SWmpof5mfLxWR0WZ0BEAIJwIqAAAwFLuKipSst9fqxaw2XRfcrL8ddwGANA8EFABAIClePx+3VFUZKivjI7WO3FxJnQEAAgXp9kNAADQ3PlGDDbt/vc06SM3rIeDuf2ldodeefZ1bejQsVZ9QlKSBpWXK3Gf81QBAM0DR1ABAIDlOP0+jX/hcUN9r8Ohp1kwCQCaLQIqAACwpF7ffqMzv/jEUJ+RkKCNTiaBAUBzREAFAACWdc/Mfyi2vLxWrdpm0wNJSWKSLwA0PwRUAABgWW337taoOS8a6p/FxuqTmJjwNwQAaFIEVAAAYGkj33lFbaurDfUHk5NVHmR/AEDkIqACAABLi62s0AOFhYb6VqdTU10uEzoCADQVAioAALC808vL9deKCkP92cREFkwCgGaEgAoAACzPJml8QYGc+1z/tNJm09jkZBZMAoBmgoAKAAAiwpHV1bqhuNhQ/zImRm/FxZnQEQAg1AioAAAgYtxaVKRDgyyYND45WTl2/qwBgEjXoJM2Vq9erVmzZsnv96t///4aMmRIre3//ve/9emnn8rhcCgpKUk33HCD0tPTJUkXXnih2rdvL0lKS0vTXXfdFdpnAAAAWow4SY8VFOgSj6dWPd9u17jkZE3Ly5PNnNYAACFQb0D1+/2aOXOm7r33Xnk8Ho0bN05ZWVlq27ZtzT4dOnTQxIkTFRMTowULFujVV1/VbbfdJkmKjo7WpEmTmu4ZAACAFuWUigqdW1qqefHxteofxMVpflmZzinn4jMAEKnqnQuzceNGZWZmKiMjQ06nU7169dLy5ctr7dO1a1fF/Hax7COOOEJer7dpugUAAJD0YGGhUn0+Q/3ulBRlM9UXACJWvb/BvV6vPH+YRuPxePYbQBctWqTu3bvXfF9VVaWxY8fqnnvu0X//+9/GdQsAACApze/XowUFhnq+3a67WNUXACJWSC8ctmTJEm3evFkPPvhgTW3q1Klyu93as2ePxo8fr/bt2yszM9Nw24ULF2rhwoWSpIkTJyotLS2UrYXUHrMbAACghQn2d8E1khb6fHrH4ahVXxAXpwVRUbrU72/w/df3b3s4/i5xOp2W/vsHtTFekYOxiiz1BlS3263c3Nya73Nzc+V2uw37ffvtt5o3b54efPBBRUVF1bq9JGVkZKhLly7asmVL0IA6YMAADRgwoOb7nJycA3smAACg2arr74IH7HZ9lp6u3H1C6m12u7rl5OiQAwipB/P4oZSWlsbfPxGE8YocjJX1tG7dus5t9U7x7dixo3bt2qXs7GxVV1dr2bJlysrKqrXPzz//rOnTp2vMmDFKTk6uqRcXF6uqqkqSVFhYqPXr19daXAkAAKAxPH6/Hgsy1bfAbteYlBSm+gJAhKn3CKrD4dA111yjCRMmyO/3q2/fvmrXrp1mz56tjh07KisrS6+++qrKy8v15JNPSvrf5WR27NihadOmyW63y+/3a8iQIQRUAAAQUmeWl2tIaane3WdV30WxsZqekKDrSkpM6gwAcKBsgUDAkh8u7ty50+wW6uQbMdjsFgAAaFEc0+fvd7vXZlO/Vq20d5+pvs5AQO/k5Cjrtxlddanv3/b6Hj8UmIYYWRivyMFYWU+jpvgCAABYnTsQ0OP5+YZ6tc2mkW63vFx6BgAiAr+tAQBAszCwokLDi4sN9V0Oh25JSVFolksCADQlAioAAGg27i0s1LGVlYb64thYPetymdARAOBAEFABAECzES3phbw8pQS5vMwTiYlaGh0d/qYAAA1W7yq+AAAAkaSNz6d/5OXpSo+nVt1vs+nG1FR9vHevMkJ0fdQDUe8ii/OWhacRALAwjqACAIBmZ0BFhW4qKjLU9zocusLtVpHNZkJXAID6EFABAECzdGdRkf5SUWGofx8dravdbpWb0BMAYP8IqAAAoFlySpqSl6c0n8+w7cuYGN2Qmqrq8LcFANgPAioAAGi2Mvx+zfR6FRfknNMFcXG6g8vPAIClEFABAECzllVVpel5eXIGAoZtb8fH6+GkJBm3AADMQEAFAADNXt+KCj2TlydbkJA6zeXSlAuuCn9TAAADAioAAGgRzikv14SCgqDbHr/qJr026NwwdwQA2BcBFQAAtBhXlpbqjsLCoNvuvnGc3u/dP8wdAQD+iIAKAABalNHFxRpeXGyoB+x23XLnI1rS/QQTugIASARUAADQwtgkPVhYqKGlpYZtVVFRuu7eSYRUADAJARUAALQ4dklP5udrQHm5YVtpXLyueugfmtdnUPgbA4AWjoAKAABapChJz3u9OqGiwrCt2unUrXc+oheGXsYlaAAgjJxmNwAAAGCWOEmzvF5dUFqotR07G7ZPGD5auz2t9KD4VB8AwoHftQAAoEVLDgT05rjrdcJ33wTdPnPIJbo+NVWlNluYOwOAloeACgAAWrzkkmK9ct/NOv0/nwbd/kFcnM5JS9M2hyPMnQFAy0JABQAAkBRbVampfx+nq/41O+j2dVFRGpSero9jY8PcGQC0HARUAACA3zj8fj30/CTd9eKzQbfn2+26xu3W/UlJqgxzbwDQEhBQAQAA/sAm6ca3X9Jzf79bsUEuQyNJM10uDUlL0xam/AJASBFQAQAAghi8ZIHeGTNcrbN3B92+Jjpag9LTNZ8pvwAQMgRUAACAOvx503p9eMulOrWOI6lFdrtucLt1XWqqdtn5swoAGovfpAAAAPuRWlSgWV6vHiwoUFQgEHSf9+PidEqrVpqWkKDqMPcHAM0JARUAAKAeNkkjSkr0bk6O2lcHj6AldrseSk7W6enpWhEVFd4GAaCZIKACAAA0UPeqKn28d6/OLCurc591UVE6Jz1dY5KTlWezhbE7AIh8TrMbAAAAqI9vxOBG3d4xfX7IHj9B0lRJ7/YZpIevvU05qZ6gt3ktIUEfxsbqvsJCXbCfQBsqZr9GLcEfX+M9QbbzGiJc6nu/R/LPIkdQAQAADpBN0rmffaRFI8/X5e+/LZvfH3Q/r8Oh21JTdb7Ho/XtDw9vkwAQgQioAAAABymluEgTpv5d7/3tav25srLO/b6KidHpz76ux666SaUxXJYGAOpCQAUAAGik7hvW6v2cHD1cUCBXHUdTq51O/d8FV+mvM97Vi2cNU4WThZQAYF8EVAAAgBBwSLqmpESfZ2dr8H7OOd3rTtP9N4xRn+lz9ebAc1Rtd4SvSQCwOAIqAABACGX6/fq/vDy9kZurDnVckkaSdrQ6RGNuvU/9n39L755ymoIfdwWAloWACgAA0AROrqjQp9nZ+lthoaIDgTr3+7nNobplzARlOZ36MDZWde8JAM0fARUAAKCJxEq6vbhYn2Zn6+zPF+x337V2u651u3VGWpoWxMQQVAG0SARUAACAJna4z6cpj9+tj266WAO+XrLffb+NjtbVHo8Gpqfr/dhYpv4CaFEIqAAAAGHS5eef9M/xt+u926/UX1d+td9910VF6Tq3WwPS0/VebKx8YeoRAMxEQAUAAAizY9ev1Wv33aS37rpOWWtX73ff9VFRGuV2q296ut6Ji1Pdyy4BQOQjoAIAAJjkxO9X6p0x1+qV+25Szzqun/q7TVFRuiU1Vae0aqV34uI4ogqgWSKgAgAAmMgm6ZSVX2lpdbVeyc1Vj8rK/e6/xenULampGsA5qgCaIQIqAACABdgk9auo0PycHL2Rk6MTKir2u/+G385RHZSerk9Y9RdAM0FABQAAsBCbpJMrKzU3N1dzcnLUu56gujYqSld5PBoyeZa+6H48QRVARCOgAgAAWNRfKiv1Vm6u3s3J0Snl5fvdd9VRf9alE6bqwsde0NdHdw9PgwAQYgRUAAAAizuuslKve72am5OjE+s5ovpVt5664PEZuuKhf+jHQzuGqUMACA0CKgAAQIQ4obJSc3Jz9UZOjo6tZzGlz7J6a9Czr2vMzfcoO9UTpg4BoHEIqAAAABHk93NU/5WToxdzc9WlqqrOff0Oh94cdK5Onj5P/7houEpjYsPXKAAcBAIqAABABLJJOrWiQh/v3asXvF51+mVznfuWxsVr8uU36JRpczW37+kspATAsgioAAAAEcwu6azycn1y40V6+on71G739jr33ZPWSqPveFhDn5ipNZ3+FL4mAaCBCKgAAADNgMPv19DFH2rR9Rfo3hlPKam4sM59v/nTMRr81Eu689b7tDfFHcYuAWD/CKgAAADNSEx1la6b95q+uPZcXfPu63JWVwfdL2C3a/bAc9Rn2lxNO/dS7X/JJQAIDwIqAABAM5RaVKAHpz+pT2+4QKctW1znfkUJLj1y7W0akJ6uBTExnJ8KwFS2QCBgyd9DO3fuNLuFOvlGDDa7BQAAYDGO6fP3u93svx++6H68HhrxN23osP9ro3apqtLNRUU6s7xcjhD3UN9rUN9r2NTCMUaN/Tmx+s+Z2WMoNf41sMIYNXUPZmvdunWd2ziCCgAA0AL8dfV/9dHNl+ih5yft9/zUdVFRusHtVt/0dM2Oi1PdF7EBgNBzmt0AAAAAwsPp9+nqf83W4M8/1hOX36DXB52rgD348YpNUVG6PTVVTyYmalRxsS4sLRVXUW2YgKT8xGTtSM/UjlaZv/3/EBW6EuVITpZNkkOSIxCQXb8eMfr9e9sVoxRdVanUwgKlFubL/Yf/UgoLlGDmEwPCgIAKAADQwngK8/XYlMd02Yfv6IHr79B/u/aoc9/tTqfuTknRPxITdX1xsS4vLVW8Nc8QC7uiuAR9e8Sf9O0RXfRLZhvtaJWp7a0O0c70TJXGxR/cnV54zX43J/j9cv/hv9R9vk/p1U/peblqnbNbGbk5cvp9B9cHYBICKgAAQAt19OYNevuu67Q4q7eevWeSvomOrnPfPQ6Hxicn61mXS9eWlOjqkhIlt7CgGpC09vDOWnxcby3K6q1VnbvK7wj1mbr7V2K3q8Ru17a6drjn8Zov7T6fWuXlqPXePTokZ49a792j1nt3q/Ufvk7L98oWls6BhiGgAgAAtGA2Sf1WLNWAnBwti47WM4mJ+k9MTJ375zkcmpSUpOddLl1ZUqLrSkrk8fvD13CYFcYn6ItjT9TirN76rOdflO1JN7ulBvM7HNqdlqHdaRl17pNUXKQjftmsI3/ZpCO3blbnrZt05C+blZ6XS3CFKQioAAAAkE1S78pK9c7N1TdRUXo2MVGfxNZ91mmR3a7nEhM1IyFBl5WWamRxsQ6J0KAakJRjt2tr56O1Pf0Q7Wj1638/duiob/50jKqdzfdP5kJXor7pcoy+6XJMrXpKYb6O/GWz/vTzRh2zYa2OXf+9Dtv5i+wt7Kg5wq/5vtsAAABwUHpWVelFr1drnU49m5iof8fGKmALfjyt3G7XDJdLLyck6ILSUt1YXKxDfdY679Enabfdrh1Op7Y7HNrmcGiHw/Hr106ndjocKrfZpCdfCtljxlSUq83ePWqTvUtt9u5Wm+xdSs/Llf2Km+ST5Jfkt9nk+60/v80mv6Tqd19VWUys8hKT5U1KUV5Syq//T/71e58jPH++5yel6L9de9Q6PzmpuFDHrv9e3dd/r2PX/xpaU4sKwtIPWg4CKgAAAII6urpaz+flaaPDoSmJiXonLk6+OoJqpc2m1xIS9GZ8vM4pK9PNxcU6sro6LH1WStr1W+Dc7nBo+z5BdKfDoeo6+m6sdru3K+uHb9Vl8wa1272zJox6CvKCTpF1nL//RZB8s/9Z5za/zabS6fPltdtr/Zf3h6/3fv+NdntaaWd6hrzJqY18drUVupL0ec9e+rxnr5pau93bdUhOtjwF+XIX5Ck9MVEev18en09uv18ev19pvy3g1JyCR4UzSt7kVOUmp8qbnKKcFLe8yanyJqWoLClJ5TabKmy22v+XVG6zqXzKbJXHxKgiKloxVZVKz89Vel6u0vK8Ssv3Kj0/V61iY5Xu9yvN51O636+EQKDFTLluTj8nAAAAaAKdfD49lZ+v24uKNNXl0uz4eFXUEfh8NpvmxsdrXlycTi8v161FRerayKBaJv16xPO34Ll9nzC6226v8whvqEVXVerEb79R3xVL1W/FUh22s87likLOHggoORBQss+nw+o4Su0bf3vN1+XRMdqV1ko70zK0Mz1DO9MztTM9Q7vSMrQzLVO/ZLZR+X6mcTfEtsy22pbZtkH7pvwWVNN8Pnl++/r3AOvx++X+rf77f1GN6uzAlEdFy5ucqpyUVOXHxCjXblfub6E/x25XrsNR833uW5+pKMF18A/WoWOtb385pP7XL9bvV/rv//l88tx0t9Lzc3XI3j3q9tMPOmrLxmazYjMBFQAAAA3SzufTYwUFGl1UpBdcLr0cH6+yOq6jGrDZ9EFcnD6Ii1O/8nLdUlysui5mUxSXoB2tMrUzJqbWEdDf/8sJ80q5+2qTvUt9ly9V3xVL1XvNcsVXlJvaT0PFVlbosJ3b6gzRPrtd21odog2HdtSG9of/+v9DD9emth1UEV33QlkHK99uV77drs0NPKc3+Y8htgGh9o9rUAcklcTFKyfFrexUj/ampmlvqucP33uUm+JWbnKKvEmpKok/gCvMOhsRTg9Sud2ubX9cvfn0obW2x5aXq9vGdTp2/fc69sfvlWW3R+w54QRUAAAAHJAMv1/3FxbqpuJizUhI0KyEBBXWEVQlaVFsrBbFxuovjz2vfsv/o12eVtqe0Vo7Wh2i7a0yVZCYHMbug0vw+9X2l81qk71LbbN3qe2eXWqTvUudt27SEdt+bpbTKx1+vzrs3qEOu3do4NdLaurVdoe2HtJWP3bopDVHdtGqzl317RFdVBYbF9b+Cux2Fdjt+rmB+yf9FmD9M97V3lRP2Ps1U3lsrOGc4UyfT5eVlOi24mITOztwBFQAAAAcFLffrzFFRRpZXKyXEhI0LSFB3v0c7fyyW5a+7JYVxg7/J8XvV9vqarX1+Wr91666Wm18PqUEAvLfeJEpvVmN0+9Txx1b1XHHVp259FNJv4bWDYcerlWdu2p1565adWRX/dT+MAX288FEuBXa7b9+UNKAKbMtwe7fF/+KMARUAAAANEpSIKCbi4s1vKREr8XH63mXS7vDPC03fZ/guW8YdXF5lEZx+n3q8vNP6vLzT7r0o3mSfp2avS2z9W8LBaUqNylFeZeOVM7v52r+/p/DoXwLBdlQsPt8chfmy12QL09hnjz53pqFopLOvkixgYBiAgHFBgKKlWq+jgkEFP3ATYqpqlRMZaWK4+KVk+pWTopHe1Pcv01D9ijn5IHKsdu11+FQjt2uqoMMmj2qqkL7xMOAgAoAAICQiA8ENKKkRFeUlOjt+HhNcbn0SwiuIWoPBJS5bwD9QxBt7fOp5UzmtI7EshJ1+fmnWjXH4EuD7lslKe+3wFoTYH9beMgQaO125YX5Aw6Hr1ruwnx58vPkad2+ZiXiPy7a9Pt/qbdcrOTiwjqvCevod/Z+H8u3dVOt74/cZpzE7Oj6v5kGAUkFNptyHA7ttdu1127XnrdmKtudph8OO1KrOh+t/KSUoI91bGXl/p+4BRFQAQAAEFIxki4rLdVFpaV6Ny5Oz7lc+imq7jVZo6qqdEjOHrV1p6vdb6Gzjc/369c+nw7x+cK6oitCL0pSK79frRq4cE+1/hdoGxJq84Ks5BxdVVlz+ZZfL+WSo1Z5/7uki6fAq7T8PHkK8pRUUlQTOB3T5++3N1+Yr/1qk5QSCCilulqdfu/hX7NrtgckbWndTis7/1mrO3fVyqO66odOf1Kmz9fg19tKCKgAAABoEk5J55eVaWhZmRbExuqrzz5QSVz8b4sQ7VSb7N1qm71LrfJy5PD76w0GaDmcUs1lVRrCp/8F2sD9o5Sel6vk4qJmubjVvmxSzWrN5y3+QJJUOX2+dpq8+vXBIqACAACgSdklDSov16kznza7FTRTDklpv11+xrdti9ntmC5OUsc6rpVrdc3rbGUAAAAAQMQioAIAAAAALKFBU3xXr16tWbNmye/3q3///hoyZEit7VVVVXruuee0efNmJSYmavTo0WrVqpUkad68eVq0aJHsdruuvvpqde/ePdTPAQAAAADQDNR7BNXv92vmzJm6++679dRTT2np0qXavn17rX0WLVqkhIQEPfvsszrzzDP12muvSZK2b9+uZcuW6cknn9Q999yjmTNnyh+BK0kBAAAAAJpevQF148aNyszMVEZGhpxOp3r16qXly5fX2mfFihXq06ePJOnEE0/U999/r0AgoOXLl6tXr16KiopSq1atlJmZqY0bNzbJEwEAAAAARLZ6A6rX65XH46n53uPxyOv11rmPw+FQfHy8ioqKDLd1u92G2wIAAAAAIFnoMjMLFy7UwoULJUkTJ05U69atTe5oP95fYXYHAAAg0vD3g/VfAyv019gerPAczNbUr4EVxqgZj3O9R1Ddbrdyc3Nrvs/NzZXb7a5zH5/Pp9LSUiUmJhpu6/V6Dbf93YABAzRx4kRNnDjxoJ5IOI0dO9bsFtBAjFXkYKwiC+MVORiryMFYRRbGK3IwVpGl3oDasWNH7dq1S9nZ2aqurtayZcuUlZVVa5+ePXvqs88+kyR99dVXOvroo2Wz2ZSVlaVly5apqqpK2dnZ2rVrlzp16tQkTwQAAAAAENnqneLrcDh0zTXXaMKECfL7/erbt6/atWun2bNnq2PHjsrKylK/fv303HPP6eabb5bL5dLo0aMlSe3atdNf/vIX3X777bLb7Ro+fLjsdi69CgAAAAAwatA5qD169FCPHj1q1S688MKar6Ojo3X77bcHve3QoUM1dOjQRrRoPQMGDDC7BTQQYxU5GKvIwnhFDsYqcjBWkYXxihyMVWSxBQKBgNlNAAAAAADAfFsAAAAAgCVY5jIzVrB69WrNmjVLfr9f/fv315AhQ2ptr6qq0nPPPafNmzcrMTFRo0ePVqtWrSRJ8+bN06JFi2S323X11Vere/fu4X8CLUh9Y/Xvf/9bn376qRwOh5KSknTDDTcoPT1d0q/T09u3by9JSktL01133RXu9luc+sbrs88+0yuvvFKzyvegQYPUv3//mm1z586V9OspA3369Aln6y1OfWP14osvau3atZKkyspKFRQU6MUXX5TEeyvcpk6dqpUrVyo5OVmTJ082bA8EApo1a5ZWrVqlmJgYjRo1Socffrgk3lfhVt9YffHFF3rvvfcUCAQUFxena6+9Vh06dJAk3XjjjYqNjZXdbpfD4YiIqx1EuvrGa+3atXr88cdr/gY84YQTdP7550uq/3coQqu+sZo/f76++OILSZLf79f27ds1c+ZMuVwu3ltWFkAgEAgEfD5f4Kabbgrs3r07UFVVFbjjjjsC27Ztq7XPRx99FHjhhRcCgUAg8J///Cfw5JNPBgKBQGDbtm2BO+64I1BZWRnYs2dP4Kabbgr4fL6wP4eWoiFj9d133wXKy8sDgUAg8PHHH9eMVSAQCFx22WVh7bela8h4LV68ODBjxgzDbYuKigI33nhjoKioqNbXaBoNGas/+uCDDwJTpkyp+Z73VnitXbs2sGnTpsDtt98edPs333wTmDBhQsDv9wfWr18fGDduXCAQ4H1lhvrG6scff6wZg5UrV9aMVSAQCIwaNSpQUFAQlj7xq/rG6/vvvw889thjhvqB/g5F49U3Vn+0fPnywIMPPljzPe8t62KK7282btyozMxMZWRkyOl0qlevXlq+fHmtfVasWFHzKfOJJ56o77//XoFAQMuXL1evXr0UFRWlVq1aKTMzUxs3bjThWbQMDRmrrl27KiYmRpJ0xBFHyOv1mtEq1LDxqsvq1avVrVs3uVwuuVwudevWTatXr27ahluwAx2rpUuX6qSTTgpjh/ijLl26yOVy1bl9xYoVOvnkk2Wz2XTkkUeqpKREeXl5vK9MUN9Yde7cuWb7EUccUesa8gi/+sarLo359w4H50DGaunSperdu3cTd4RQYIrvb7xerzweT833Ho9HP/30U537OBwOxcfHq6ioSF6vV0cccUTNfm63m0DUhBoyVn+0aNGiWlOuq6qqNHbsWDkcDp1zzjk6/vjjm7LdFq+h4/X111/rhx9+0CGHHKIrr7xSaWlphtvy3mpaB/Le2rt3r7Kzs9W1a9eaGu8ta/F6vUpLS6v53uPxyOv18r6yuEWLFunYY4+tVZswYYIk6dRTT2U1UovYsGGD7rzzTqWmpuryyy9Xu3btDvjvE4RPRUWFVq9ereHDh9eq896yJgIqmrUlS5Zo8+bNevDBB2tqU6dOldvt1p49ezR+/Hi1b99emZmZ5jUJ9ezZU71791ZUVJQ++eQTTZkyRQ888IDZbWE/li5dqhNPPLHWta15bwGN8/3332vx4sUaP358Te3hhx+W2+1WQUGBHnnkEbVu3VpdunQxsUscdthhmjp1qmJjY7Vy5UpNmjRJzzzzjNltYT+++eabWjMVJN5bVsYU39+43e5aU2pyc3NrFmwJto/P51NpaakSExMNt/V6vYbbInQaMlaS9O2332revHkaM2aMoqKiat1ekjIyMtSlSxdt2bKlyXtuyRoyXomJiTVj1L9/f23evDnobXlvNa2GvrckadmyZYapUry3rMXtdisnJ6fm+9/Hk/eVNW3dulUvvPCC7rzzTiUmJtbUfx+b5ORkHXfccZxCZAHx8fGKjY2VJPXo0UM+n0+FhYUH9DsU4RXslBTeW9ZFQP1Nx44dtWvXLmVnZ6u6ulrLli1TVlZWrX169uypzz77TJL01Vdf6eijj5bNZlNWVpaWLVumqqoqZWdna9euXerUqZMJz6JlaMhY/fzzz5o+fbrGjBmj5OTkmnpxcbGqqqokSYWFhVq/fr3atm0b1v5bmoaMV15eXs3XK1asqBmT7t27a82aNSouLlZxcbHWrFnDCtlNqCFjJUk7duxQSUmJjjzyyJoa7y3rycrK0pIlSxQIBLRhwwbFx8crNTWV95UF5eTk6IknntBNN92k1q1b19TLy8tVVlZW8/W3335bs1I2zJOfn69AICDp1/NO/X6/EhMTG/w7FOFVWlqqdevW1RoL3lvWZgv8/g6DVq5cqZdeekl+v199+/bV0KFDNXv2bHXs2FFZWVmqrKzUc889p59//lkul0ujR49WRkaGJGnu3LlavHix7Ha7rrrqKsP5Iwit+sbq4Ycf1i+//KKUlBRJ/7vkxfr16zVt2jTZ7Xb5/X6deeaZ6tevn7lPpgWob7xef/11rVixQg6HQy6XS9dee63atGkj6dfzsebNmyfp18th9O3b18yn0uzVN1aS9NZbb6mqqkqXXnppze14b4Xf008/rXXr1qmoqEjJyckaNmyYqqurJUkDBw5UIBDQzJkztWbNGkVHR2vUqFHq2LGjJN5X4VbfWD3//PP6+uuva84Z/v2SF3v27NETTzwh6deZWyeddJKGDh1q2vNoKeobr48++kgLFiyQw+FQdHS0rrjiCnXu3FlS8N+haDr1jZX062W1Vq9erdGjR9fcjveWtRFQAQAAAACWwBRfAAAAAIAlEFABAAAAAJZAQAUAAAAAWAIBFQAAAABgCQRUAAAAAIAlEFABAAAAAJZAQAUAAAAAWAIBFQAAAABgCf8PCw/XF8RjyaUAAAAASUVORK5CYII=;" vertex="1" parent="1">
          <mxGeometry x="587.89" y="177.69" width="290.53" height="212.31" as="geometry" />
        </mxCell>
        <mxCell id="YkEF_Q2LTufc7rQMarKT-13" value="1+(20.23 / 80) = 1.25" style="text;html=1;align=center;verticalAlign=middle;resizable=0;points=[];autosize=1;fontSize=12;" vertex="1" parent="1">
          <mxGeometry x="1744" y="500" width="130" height="20" as="geometry" />
        </mxCell>
        <mxCell id="YkEF_Q2LTufc7rQMarKT-15" value="" style="rounded=0;whiteSpace=wrap;html=1;strokeColor=#6c8ebf;fillColor=#A1C3FC;" vertex="1" parent="1">
          <mxGeometry x="740" y="70" width="40" height="30" as="geometry" />
        </mxCell>
        <mxCell id="YkEF_Q2LTufc7rQMarKT-16" value="Cluster" style="text;html=1;strokeColor=none;fillColor=none;align=center;verticalAlign=middle;whiteSpace=wrap;rounded=0;fontSize=9;" vertex="1" parent="1">
          <mxGeometry x="700" y="75" width="40" height="20" as="geometry" />
        </mxCell>
        <mxCell id="YkEF_Q2LTufc7rQMarKT-17" value="Node" style="text;html=1;strokeColor=none;fillColor=none;align=center;verticalAlign=middle;whiteSpace=wrap;rounded=0;fontSize=9;" vertex="1" parent="1">
          <mxGeometry x="740" y="75" width="40" height="20" as="geometry" />
        </mxCell>
        <mxCell id="YkEF_Q2LTufc7rQMarKT-18" value="Param" style="text;html=1;strokeColor=none;fillColor=none;align=center;verticalAlign=middle;whiteSpace=wrap;rounded=0;fontSize=9;" vertex="1" parent="1">
          <mxGeometry x="700" y="25" width="40" height="20" as="geometry" />
        </mxCell>
      </root>
    </mxGraphModel>
  </diagram>
</mxfile>
